<?xml version="1.0" encoding="UTF-8" standalone="no"?>
<!DOCTYPE svg PUBLIC "-//W3C//DTD SVG 1.1//EN" "http://www.w3.org/Graphics/SVG/1.1/DTD/svg11.dtd">
<svg xmlns="http://www.w3.org/2000/svg" version="1.1" viewBox="0.00 0.00 32.00 32.00">
<g stroke-width="2.00" fill="none" stroke-linecap="butt">
<path stroke="#efefef" vector-effect="non-scaling-stroke" d="
  M 32.00 24.41
  L 30.65 19.06
  A 2.43 2.23 -72.3 0 0 30.29 18.28
  Q 26.04 12.49 18.54 11.04"
/>
<path stroke="#7fa5cd" vector-effect="non-scaling-stroke" d="
  M 18.54 11.04
  Q 16.01 10.67 12.97 13.05
  A 0.21 0.21 0.0 0 1 12.63 12.89
  L 12.63 6.32
  A 0.39 0.38 90.0 0 0 12.25 5.93
  L 9.26 5.93
  A 0.44 0.43 90.0 0 0 8.83 6.37
  L 8.81 10.54"
/>
<path stroke="#efefef" vector-effect="non-scaling-stroke" d="
  M 8.81 10.54
  L 0.00 14.17"
/>
<path stroke="#7197bf" vector-effect="non-scaling-stroke" d="
  M 18.54 11.04
  Q 25.45 14.11 23.63 20.51
  Q 22.51 24.46 19.70 25.59
  Q 16.47 26.88 13.38 24.32
  A 0.51 0.51 0.0 0 0 12.55 24.67
  Q 12.55 24.70 12.60 24.95
  A 0.63 0.62 -0.3 0 1 11.87 25.68
  Q 10.74 25.47 9.56 25.66
  A 0.67 0.67 0.0 0 1 8.79 25.00
  L 8.81 10.54"
/>
<path stroke="#7197bf" vector-effect="non-scaling-stroke" d="
  M 16.2653 14.2207
  A 4.28 3.72 -91.0 0 0 12.6206 18.5649
  A 4.28 3.72 -91.0 0 0 16.4147 22.7793
  A 4.28 3.72 -91.0 0 0 20.0594 18.4351
  A 4.28 3.72 -91.0 0 0 16.2653 14.2207"
/>
</g>
<path fill="#fdfdfd" d="
  M 32.00 0.00
  L 32.00 24.41
  L 30.65 19.06
  A 2.43 2.23 -72.3 0 0 30.29 18.28
  Q 26.04 12.49 18.54 11.04
  Q 16.01 10.67 12.97 13.05
  A 0.21 0.21 0.0 0 1 12.63 12.89
  L 12.63 6.32
  A 0.39 0.38 90.0 0 0 12.25 5.93
  L 9.26 5.93
  A 0.44 0.43 90.0 0 0 8.83 6.37
  L 8.81 10.54
  L 0.00 14.17
  L 0.00 0.00
  L 32.00 0.00
  Z"
/>
<path fill="#004c9d" d="
  M 18.54 11.04
  Q 25.45 14.11 23.63 20.51
  Q 22.51 24.46 19.70 25.59
  Q 16.47 26.88 13.38 24.32
  A 0.51 0.51 0.0 0 0 12.55 24.67
  Q 12.55 24.70 12.60 24.95
  A 0.63 0.62 -0.3 0 1 11.87 25.68
  Q 10.74 25.47 9.56 25.66
  A 0.67 0.67 0.0 0 1 8.79 25.00
  L 8.81 10.54
  L 8.83 6.37
  A 0.44 0.43 -90.0 0 1 9.26 5.93
  L 12.25 5.93
  A 0.39 0.38 -90.0 0 1 12.63 6.32
  L 12.63 12.89
  A 0.21 0.21 0.0 0 0 12.97 13.05
  Q 16.01 10.67 18.54 11.04
  Z
  M 16.2653 14.2207
  A 4.28 3.72 -91.0 0 0 12.6206 18.5649
  A 4.28 3.72 -91.0 0 0 16.4147 22.7793
  A 4.28 3.72 -91.0 0 0 20.0594 18.4351
  A 4.28 3.72 -91.0 0 0 16.2653 14.2207
  Z"
/>
<path fill="#e1e1e1" d="
  M 8.81 10.54
  L 8.79 25.00
  A 0.67 0.67 0.0 0 0 9.56 25.66
  Q 10.74 25.47 11.87 25.68
  A 0.63 0.62 -0.3 0 0 12.60 24.95
  Q 12.55 24.70 12.55 24.67
  A 0.51 0.51 0.0 0 1 13.38 24.32
  Q 16.47 26.88 19.70 25.59
  Q 22.51 24.46 23.63 20.51
  Q 25.45 14.11 18.54 11.04
  Q 26.04 12.49 30.29 18.28
  A 2.43 2.23 -72.3 0 1 30.65 19.06
  L 32.00 24.41
  L 32.00 32.00
  L 0.00 32.00
  L 0.00 14.17
  L 8.81 10.54
  Z"
/>
<ellipse fill="#e1e1e1" cx="0.00" cy="0.00" transform="translate(16.34,18.50) rotate(-91.0)" rx="4.28" ry="3.72"/>
</svg>
