<?xml version="1.0" encoding="UTF-8" standalone="no"?>
<!DOCTYPE svg PUBLIC "-//W3C//DTD SVG 1.1//EN" "http://www.w3.org/Graphics/SVG/1.1/DTD/svg11.dtd">
<svg xmlns="http://www.w3.org/2000/svg" version="1.1" viewBox="0.00 0.00 32.00 32.00">
<g stroke-width="2.00" fill="none" stroke-linecap="butt">
<path stroke="#80a9ff" vector-effect="non-scaling-stroke" d="
  M 30.48 16.00
  A 14.49 14.49 0.0 0 0 15.99 1.51
  A 14.49 14.49 0.0 0 0 1.50 16.00
  A 14.49 14.49 0.0 0 0 15.99 30.49
  A 14.49 14.49 0.0 0 0 30.48 16.00"
/>
<path stroke="#80a9ff" vector-effect="non-scaling-stroke" d="
  M 21.50 16.31
  C 24.69 14.57 22.80 11.07 20.08 10.27
  A 0.57 0.56 -75.1 0 1 19.69 9.59
  L 20.08 8.01
  A 0.86 0.86 0.0 0 0 19.46 6.97
  L 19.04 6.87
  A 0.46 0.46 0.0 0 0 18.48 7.21
  L 18.02 9.04
  A 0.60 0.59 13.7 0 1 17.30 9.47
  L 16.93 9.38
  A 0.48 0.47 14.5 0 1 16.58 8.80
  L 16.99 7.12
  A 0.81 0.80 14.3 0 0 16.40 6.14
  L 16.10 6.07
  A 0.64 0.64 0.0 0 0 15.32 6.54
  L 14.95 8.01
  A 0.94 0.94 0.0 0 1 13.65 8.64
  Q 11.30 7.58 10.85 8.84
  Q 10.50 9.82 12.41 10.33
  A 0.67 0.67 0.0 0 1 12.88 11.13
  L 10.97 18.82
  A 0.74 0.74 0.0 0 1 10.08 19.36
  L 9.54 19.22
  A 0.93 0.93 0.0 0 0 8.42 19.90
  L 8.31 20.34
  A 0.74 0.74 0.0 0 0 8.85 21.24
  L 11.02 21.78
  A 0.42 0.41 13.9 0 1 11.33 22.28
  L 10.85 24.21
  A 0.70 0.70 0.0 0 0 11.36 25.06
  L 11.74 25.15
  A 0.70 0.69 -72.5 0 0 12.57 24.71
  L 13.25 22.77
  A 0.66 0.66 0.0 0 1 14.51 23.15
  L 14.09 24.84
  A 0.90 0.90 0.0 0 0 15.72 25.53
  Q 16.10 24.91 16.08 24.04
  A 0.71 0.71 0.0 0 1 16.77 23.32
  Q 17.79 23.28 18.75 23.23
  Q 23.18 23.01 22.57 18.59
  Q 22.42 17.52 21.53 17.11
  A 0.45 0.45 0.0 0 1 21.50 16.31"
/>
<path stroke="#80a9ff" vector-effect="non-scaling-stroke" d="
  M 15.87 11.69
  L 15.20 14.14
  A 0.49 0.49 0.0 0 0 15.54 14.74
  L 16.66 15.06
  A 2.48 1.55 15.5 0 0 19.47 14.23
  L 19.58 13.82
  A 2.48 1.55 15.5 0 0 17.61 11.66
  L 16.48 11.35
  A 0.49 0.49 0.0 0 0 15.87 11.69"
/>
<path stroke="#80a9ff" vector-effect="non-scaling-stroke" d="
  M 14.66 16.65
  L 13.81 20.02
  A 0.24 0.24 0.0 0 0 13.99 20.31
  L 14.75 20.50
  A 4.03 1.84 14.1 0 0 19.11 19.70
  L 19.18 19.43
  A 4.03 1.84 14.1 0 0 15.72 16.66
  L 14.95 16.47
  A 0.24 0.24 0.0 0 0 14.66 16.65"
/>
</g>
<path fill="#0152ff" d="
  M 18.27 0.00
  Q 29.48 2.46 32.00 13.69
  L 32.00 18.25
  Q 29.57 29.49 18.32 32.00
  L 13.65 32.00
  Q 2.51 29.50 0.00 18.35
  L 0.00 13.65
  Q 2.49 2.59 13.56 0.00
  L 18.27 0.00
  Z
  M 30.48 16.00
  A 14.49 14.49 0.0 0 0 15.99 1.51
  A 14.49 14.49 0.0 0 0 1.50 16.00
  A 14.49 14.49 0.0 0 0 15.99 30.49
  A 14.49 14.49 0.0 0 0 30.48 16.00
  Z"
/>
<path fill="#ffffff" d="
  M 30.48 16.00
  A 14.49 14.49 0.0 0 1 15.99 30.49
  A 14.49 14.49 0.0 0 1 1.50 16.00
  A 14.49 14.49 0.0 0 1 15.99 1.51
  A 14.49 14.49 0.0 0 1 30.48 16.00
  Z
  M 21.50 16.31
  C 24.69 14.57 22.80 11.07 20.08 10.27
  A 0.57 0.56 -75.1 0 1 19.69 9.59
  L 20.08 8.01
  A 0.86 0.86 0.0 0 0 19.46 6.97
  L 19.04 6.87
  A 0.46 0.46 0.0 0 0 18.48 7.21
  L 18.02 9.04
  A 0.60 0.59 13.7 0 1 17.30 9.47
  L 16.93 9.38
  A 0.48 0.47 14.5 0 1 16.58 8.80
  L 16.99 7.12
  A 0.81 0.80 14.3 0 0 16.40 6.14
  L 16.10 6.07
  A 0.64 0.64 0.0 0 0 15.32 6.54
  L 14.95 8.01
  A 0.94 0.94 0.0 0 1 13.65 8.64
  Q 11.30 7.58 10.85 8.84
  Q 10.50 9.82 12.41 10.33
  A 0.67 0.67 0.0 0 1 12.88 11.13
  L 10.97 18.82
  A 0.74 0.74 0.0 0 1 10.08 19.36
  L 9.54 19.22
  A 0.93 0.93 0.0 0 0 8.42 19.90
  L 8.31 20.34
  A 0.74 0.74 0.0 0 0 8.85 21.24
  L 11.02 21.78
  A 0.42 0.41 13.9 0 1 11.33 22.28
  L 10.85 24.21
  A 0.70 0.70 0.0 0 0 11.36 25.06
  L 11.74 25.15
  A 0.70 0.69 -72.5 0 0 12.57 24.71
  L 13.25 22.77
  A 0.66 0.66 0.0 0 1 14.51 23.15
  L 14.09 24.84
  A 0.90 0.90 0.0 0 0 15.72 25.53
  Q 16.10 24.91 16.08 24.04
  A 0.71 0.71 0.0 0 1 16.77 23.32
  Q 17.79 23.28 18.75 23.23
  Q 23.18 23.01 22.57 18.59
  Q 22.42 17.52 21.53 17.11
  A 0.45 0.45 0.0 0 1 21.50 16.31
  Z"
/>
<path fill="#0152ff" d="
  M 21.50 16.31
  A 0.45 0.45 0.0 0 0 21.53 17.11
  Q 22.42 17.52 22.57 18.59
  Q 23.18 23.01 18.75 23.23
  Q 17.79 23.28 16.77 23.32
  A 0.71 0.71 0.0 0 0 16.08 24.04
  Q 16.10 24.91 15.72 25.53
  A 0.90 0.90 0.0 0 1 14.09 24.84
  L 14.51 23.15
  A 0.66 0.66 0.0 0 0 13.25 22.77
  L 12.57 24.71
  A 0.70 0.69 -72.5 0 1 11.74 25.15
  L 11.36 25.06
  A 0.70 0.70 0.0 0 1 10.85 24.21
  L 11.33 22.28
  A 0.42 0.41 13.9 0 0 11.02 21.78
  L 8.85 21.24
  A 0.74 0.74 0.0 0 1 8.31 20.34
  L 8.42 19.90
  A 0.93 0.93 0.0 0 1 9.54 19.22
  L 10.08 19.36
  A 0.74 0.74 0.0 0 0 10.97 18.82
  L 12.88 11.13
  A 0.67 0.67 0.0 0 0 12.41 10.33
  Q 10.50 9.82 10.85 8.84
  Q 11.30 7.58 13.65 8.64
  A 0.94 0.94 0.0 0 0 14.95 8.01
  L 15.32 6.54
  A 0.64 0.64 0.0 0 1 16.10 6.07
  L 16.40 6.14
  A 0.81 0.80 14.3 0 1 16.99 7.12
  L 16.58 8.80
  A 0.48 0.47 14.5 0 0 16.93 9.38
  L 17.30 9.47
  A 0.60 0.59 13.7 0 0 18.02 9.04
  L 18.48 7.21
  A 0.46 0.46 0.0 0 1 19.04 6.87
  L 19.46 6.97
  A 0.86 0.86 0.0 0 1 20.08 8.01
  L 19.69 9.59
  A 0.57 0.56 -75.1 0 0 20.08 10.27
  C 22.80 11.07 24.69 14.57 21.50 16.31
  Z
  M 15.87 11.69
  L 15.20 14.14
  A 0.49 0.49 0.0 0 0 15.54 14.74
  L 16.66 15.06
  A 2.48 1.55 15.5 0 0 19.47 14.23
  L 19.58 13.82
  A 2.48 1.55 15.5 0 0 17.61 11.66
  L 16.48 11.35
  A 0.49 0.49 0.0 0 0 15.87 11.69
  Z
  M 14.66 16.65
  L 13.81 20.02
  A 0.24 0.24 0.0 0 0 13.99 20.31
  L 14.75 20.50
  A 4.03 1.84 14.1 0 0 19.11 19.70
  L 19.18 19.43
  A 4.03 1.84 14.1 0 0 15.72 16.66
  L 14.95 16.47
  A 0.24 0.24 0.0 0 0 14.66 16.65
  Z"
/>
<path fill="#ffffff" d="
  M 15.87 11.69
  A 0.49 0.49 0.0 0 1 16.48 11.35
  L 17.61 11.66
  A 2.48 1.55 15.5 0 1 19.58 13.82
  L 19.47 14.23
  A 2.48 1.55 15.5 0 1 16.66 15.06
  L 15.54 14.74
  A 0.49 0.49 0.0 0 1 15.20 14.14
  L 15.87 11.69
  Z"
/>
<path fill="#ffffff" d="
  M 14.66 16.65
  A 0.24 0.24 0.0 0 1 14.95 16.47
  L 15.72 16.66
  A 4.03 1.84 14.1 0 1 19.18 19.43
  L 19.11 19.70
  A 4.03 1.84 14.1 0 1 14.75 20.50
  L 13.99 20.31
  A 0.24 0.24 0.0 0 1 13.81 20.02
  L 14.66 16.65
  Z"
/>
</svg>
