<?xml version="1.0" encoding="UTF-8"?>
<svg version="1.1" xmlns="http://www.w3.org/2000/svg" width="1024" height="1024">
<path d="M0 0 C337.92 0 675.84 0 1024 0 C1024 337.92 1024 675.84 1024 1024 C686.08 1024 348.16 1024 0 1024 C0 686.08 0 348.16 0 0 Z " fill="#FEFEFE" transform="translate(0,0)"/>
<path d="M0 0 C21.12 0 42.24 0 64 0 C64 10.56 64 21.12 64 32 C74.56 32 85.12 32 96 32 C96 42.56 96 53.12 96 64 C106.56 64 117.12 64 128 64 C128 74.56 128 85.12 128 96 C138.56 96 149.12 96 160 96 C160 106.56 160 117.12 160 128 C170.56 128 181.12 128 192 128 C192 149.12 192 170.24 192 192 C202.56 192 213.12 192 224 192 C224 202.56 224 213.12 224 224 C245.12 224 266.24 224 288 224 C288 234.56 288 245.12 288 256 C309.12 256 330.24 256 352 256 C352 266.56 352 277.12 352 288 C361.9 288 371.8 288 382 288 C382 298.56 382 309.12 382 320 C361.54 320 341.08 320 320 320 C320 309.44 320 298.88 320 288 C309.44 288 298.88 288 288 288 C288 298.56 288 309.12 288 320 C277.44 320 266.88 320 256 320 C256 309.44 256 298.88 256 288 C234.88 288 213.76 288 192 288 C192 298.56 192 309.12 192 320 C202.56 320 213.12 320 224 320 C224 330.56 224 341.12 224 352 C202.88 352 181.76 352 160 352 C160 341.44 160 330.88 160 320 C149.44 320 138.88 320 128 320 C128 330.56 128 341.12 128 352 C117.44 352 106.88 352 96 352 C96 362.56 96 373.12 96 384 C85.44 384 74.88 384 64 384 C64 362.88 64 341.76 64 320 C74.56 320 85.12 320 96 320 C96 309.44 96 298.88 96 288 C106.56 288 117.12 288 128 288 C128 266.88 128 245.76 128 224 C117.44 224 106.88 224 96 224 C96 202.88 96 181.76 96 160 C85.44 160 74.88 160 64 160 C64 138.88 64 117.76 64 96 C53.44 96 42.88 96 32 96 C32 85.44 32 74.88 32 64 C21.44 64 10.88 64 0 64 C0 42.88 0 21.76 0 0 Z " fill="#0A214F" transform="translate(512,160)"/>
<path d="M0 0 C10.56 0 21.12 0 32 0 C32 10.56 32 21.12 32 32 C42.56 32 53.12 32 64 32 C64 42.56 64 53.12 64 64 C74.56 64 85.12 64 96 64 C96 74.56 96 85.12 96 96 C106.56 96 117.12 96 128 96 C128 106.56 128 117.12 128 128 C106.88 128 85.76 128 64 128 C64 117.44 64 106.88 64 96 C42.88 96 21.76 96 0 96 C0 85.44 0 74.88 0 64 C-10.56 64 -21.12 64 -32 64 C-32 53.44 -32 42.88 -32 32 C-21.44 32 -10.88 32 0 32 C0 21.44 0 10.88 0 0 Z " fill="#0A214F" transform="translate(256,352)"/>
<path d="M0 0 C63.36 0 126.72 0 192 0 C192 10.56 192 21.12 192 32 C128.64 32 65.28 32 0 32 C0 21.44 0 10.88 0 0 Z " fill="#4F546F" transform="translate(288,704)"/>
<path d="M0 0 C10.56 0 21.12 0 32 0 C32 31.68 32 63.36 32 96 C21.44 96 10.88 96 0 96 C0 106.56 0 117.12 0 128 C-10.56 128 -21.12 128 -32 128 C-32 106.88 -32 85.76 -32 64 C-21.44 64 -10.88 64 0 64 C0 42.88 0 21.76 0 0 Z " fill="#121636" transform="translate(576,672)"/>
<path d="M0 0 C42.24 0 84.48 0 128 0 C128 10.56 128 21.12 128 32 C85.76 32 43.52 32 0 32 C0 21.44 0 10.88 0 0 Z " fill="#4F546F" transform="translate(288,768)"/>
<path d="M0 0 C21.12 0 42.24 0 64 0 C64 10.56 64 21.12 64 32 C42.88 32 21.76 32 0 32 C0 21.44 0 10.88 0 0 Z " fill="#121636" transform="translate(672,768)"/>
<path d="M0 0 C10.56 0 21.12 0 32 0 C32 21.12 32 42.24 32 64 C21.44 64 10.88 64 0 64 C0 42.88 0 21.76 0 0 Z " fill="#0A214F" transform="translate(416,352)"/>
<path d="M0 0 C10.56 0 21.12 0 32 0 C32 21.12 32 42.24 32 64 C21.44 64 10.88 64 0 64 C0 42.88 0 21.76 0 0 Z " fill="#0A214F" transform="translate(448,288)"/>
<path d="M0 0 C10.56 0 21.12 0 32 0 C32 21.12 32 42.24 32 64 C21.44 64 10.88 64 0 64 C0 42.88 0 21.76 0 0 Z " fill="#0A214F" transform="translate(480,224)"/>
<path d="M0 0 C10.56 0 21.12 0 32 0 C32 10.56 32 21.12 32 32 C21.44 32 10.88 32 0 32 C0 21.44 0 10.88 0 0 Z " fill="#141838" transform="translate(512,800)"/>
<path d="M0 0 C10.56 0 21.12 0 32 0 C32 10.56 32 21.12 32 32 C21.44 32 10.88 32 0 32 C0 21.44 0 10.88 0 0 Z " fill="#121636" transform="translate(608,768)"/>
<path d="M0 0 C10.56 0 21.12 0 32 0 C32 10.56 32 21.12 32 32 C21.44 32 10.88 32 0 32 C0 21.44 0 10.88 0 0 Z " fill="#121636" transform="translate(640,736)"/>
<path d="M0 0 C10.56 0 21.12 0 32 0 C32 10.56 32 21.12 32 32 C21.44 32 10.88 32 0 32 C0 21.44 0 10.88 0 0 Z " fill="#0A214F" transform="translate(640,576)"/>
<path d="M0 0 C10.56 0 21.12 0 32 0 C32 10.56 32 21.12 32 32 C21.44 32 10.88 32 0 32 C0 21.44 0 10.88 0 0 Z " fill="#0A214F" transform="translate(512,576)"/>
<path d="M0 0 C10.56 0 21.12 0 32 0 C32 10.56 32 21.12 32 32 C21.44 32 10.88 32 0 32 C0 21.44 0 10.88 0 0 Z " fill="#0A214F" transform="translate(544,544)"/>
<path d="M0 0 C10.56 0 21.12 0 32 0 C32 10.56 32 21.12 32 32 C21.44 32 10.88 32 0 32 C0 21.44 0 10.88 0 0 Z " fill="#0A214F" transform="translate(736,512)"/>
<path d="M0 0 C10.56 0 21.12 0 32 0 C32 10.56 32 21.12 32 32 C21.44 32 10.88 32 0 32 C0 21.44 0 10.88 0 0 Z " fill="#0A214F" transform="translate(384,480)"/>
<path d="M0 0 C10.56 0 21.12 0 32 0 C32 10.56 32 21.12 32 32 C21.44 32 10.88 32 0 32 C0 21.44 0 10.88 0 0 Z " fill="#0A214F" transform="translate(160,448)"/>
<path d="M0 0 C10.56 0 21.12 0 32 0 C32 10.56 32 21.12 32 32 C21.44 32 10.88 32 0 32 C0 21.44 0 10.88 0 0 Z " fill="#0A214F" transform="translate(384,416)"/>
<path d="M0 0 C10.56 0 21.12 0 32 0 C32 10.56 32 21.12 32 32 C21.44 32 10.88 32 0 32 C0 21.44 0 10.88 0 0 Z " fill="#0A214F" transform="translate(192,416)"/>
<path d="M0 0 C10.23 0 20.46 0 31 0 C31 10.56 31 21.12 31 32 C20.77 32 10.54 32 0 32 C0 21.44 0 10.88 0 0 Z " fill="#3B3B3B" transform="translate(129,480)"/>
</svg>
