<?xml version="1.0" encoding="UTF-8" standalone="no"?>
<!DOCTYPE svg PUBLIC "-//W3C//DTD SVG 1.1//EN" "http://www.w3.org/Graphics/SVG/1.1/DTD/svg11.dtd">
<svg xmlns="http://www.w3.org/2000/svg" version="1.1" viewBox="0.00 0.00 180.00 180.00">
<g stroke-width="2.00" fill="none" stroke-linecap="butt">
<path stroke="#ffadb0" vector-effect="non-scaling-stroke" d="
  M 111.85 133.52
  C 129.07 130.61 140.51 120.76 141.96 102.72
  C 143.91 78.37 138.18 46.67 107.27 45.17
  Q 84.10 44.05 62.21 58.42
  C 46.17 68.95 34.50 86.26 39.28 106.00
  C 46.35 135.15 88.79 137.41 111.85 133.52"
/>
<path stroke="#ffadb0" vector-effect="non-scaling-stroke" d="
  M 89.72 66.15
  C 99.61 66.16 107.21 71.78 109.93 81.39
  Q 110.98 85.11 110.95 91.25
  Q 110.90 103.88 110.93 120.86
  A 0.58 0.57 0.0 0 0 111.51 121.43
  L 118.54 121.43
  A 0.54 0.54 0.0 0 0 119.08 120.89
  Q 119.18 102.22 119.08 89.05
  C 118.96 71.86 107.67 58.57 89.72 58.55
  C 71.78 58.54 60.47 71.81 60.31 89.00
  Q 60.19 102.17 60.26 120.84
  A 0.54 0.54 0.0 0 0 60.80 121.38
  L 67.83 121.39
  A 0.58 0.57 0.1 0 0 68.41 120.82
  Q 68.47 103.84 68.44 91.21
  Q 68.42 85.07 69.48 81.36
  C 72.21 71.75 79.82 66.14 89.72 66.15"
/>
</g>
<path fill="#ffffff" d="
  M 180.00 0.00
  L 180.00 180.00
  L 0.00 180.00
  L 0.00 0.00
  L 180.00 0.00
  Z
  M 111.85 133.52
  C 129.07 130.61 140.51 120.76 141.96 102.72
  C 143.91 78.37 138.18 46.67 107.27 45.17
  Q 84.10 44.05 62.21 58.42
  C 46.17 68.95 34.50 86.26 39.28 106.00
  C 46.35 135.15 88.79 137.41 111.85 133.52
  Z"
/>
<path fill="#fe5a60" d="
  M 141.96 102.72
  C 140.51 120.76 129.07 130.61 111.85 133.52
  C 88.79 137.41 46.35 135.15 39.28 106.00
  C 34.50 86.26 46.17 68.95 62.21 58.42
  Q 84.10 44.05 107.27 45.17
  C 138.18 46.67 143.91 78.37 141.96 102.72
  Z
  M 89.72 66.15
  C 99.61 66.16 107.21 71.78 109.93 81.39
  Q 110.98 85.11 110.95 91.25
  Q 110.90 103.88 110.93 120.86
  A 0.58 0.57 0.0 0 0 111.51 121.43
  L 118.54 121.43
  A 0.54 0.54 0.0 0 0 119.08 120.89
  Q 119.18 102.22 119.08 89.05
  C 118.96 71.86 107.67 58.57 89.72 58.55
  C 71.78 58.54 60.47 71.81 60.31 89.00
  Q 60.19 102.17 60.26 120.84
  A 0.54 0.54 0.0 0 0 60.80 121.38
  L 67.83 121.39
  A 0.58 0.57 0.1 0 0 68.41 120.82
  Q 68.47 103.84 68.44 91.21
  Q 68.42 85.07 69.48 81.36
  C 72.21 71.75 79.82 66.14 89.72 66.15
  Z"
/>
<path fill="#ffffff" d="
  M 89.72 58.55
  C 107.67 58.57 118.96 71.86 119.08 89.05
  Q 119.18 102.22 119.08 120.89
  A 0.54 0.54 0.0 0 1 118.54 121.43
  L 111.51 121.43
  A 0.58 0.57 0.0 0 1 110.93 120.86
  Q 110.90 103.88 110.95 91.25
  Q 110.98 85.11 109.93 81.39
  C 107.21 71.78 99.61 66.16 89.72 66.15
  C 79.82 66.14 72.21 71.75 69.48 81.36
  Q 68.42 85.07 68.44 91.21
  Q 68.47 103.84 68.41 120.82
  A 0.58 0.57 0.1 0 1 67.83 121.39
  L 60.80 121.38
  A 0.54 0.54 0.0 0 1 60.26 120.84
  Q 60.19 102.17 60.31 89.00
  C 60.47 71.81 71.78 58.54 89.72 58.55
  Z"
/>
</svg>
