<?xml version="1.0" encoding="UTF-8" standalone="no"?>
<!DOCTYPE svg PUBLIC "-//W3C//DTD SVG 1.1//EN" "http://www.w3.org/Graphics/SVG/1.1/DTD/svg11.dtd">
<svg xmlns="http://www.w3.org/2000/svg" version="1.1" viewBox="0.00 0.00 64.00 64.00">
<g stroke-width="2.00" fill="none" stroke-linecap="butt">
<path stroke="#6e733a" vector-effect="non-scaling-stroke" d="
  M 24.09 12.92
  Q 23.95 12.98 23.85 12.91
  C 20.63 10.51 16.40 10.44 13.43 13.41
  C 10.47 16.37 10.54 20.60 12.93 23.82
  Q 13.01 23.92 12.95 24.06
  Q 12.89 24.20 12.77 24.22
  C 8.80 24.80 5.76 27.75 5.76 31.94
  C 5.76 36.13 8.80 39.07 12.77 39.66
  Q 12.89 39.67 12.95 39.81
  Q 13.01 39.95 12.93 40.05
  C 10.54 43.27 10.47 47.51 13.43 50.47
  C 16.40 53.44 20.63 53.36 23.85 50.97
  Q 23.95 50.90 24.09 50.95
  Q 24.23 51.01 24.25 51.13
  C 24.83 55.11 27.77 58.15 31.96 58.15
  C 36.16 58.15 39.10 55.11 39.68 51.13
  Q 39.70 51.01 39.84 50.95
  Q 39.98 50.90 40.08 50.97
  C 43.30 53.37 47.53 53.44 50.50 50.47
  C 53.46 47.51 53.39 43.28 51.00 40.05
  Q 50.92 39.96 50.98 39.82
  Q 51.04 39.68 51.16 39.66
  C 55.13 39.07 58.17 36.13 58.17 31.94
  C 58.17 27.75 55.13 24.80 51.16 24.22
  Q 51.04 24.20 50.98 24.06
  Q 50.92 23.92 51.00 23.82
  C 53.39 20.60 53.46 16.37 50.50 13.41
  C 47.53 10.44 43.30 10.51 40.08 12.91
  Q 39.98 12.98 39.84 12.92
  Q 39.70 12.87 39.68 12.74
  C 39.10 8.77 36.16 5.73 31.97 5.73
  C 27.77 5.73 24.83 8.77 24.25 12.74
  Q 24.23 12.87 24.09 12.92"
/>
<path stroke="#6e733a" vector-effect="non-scaling-stroke" d="
  M 32.00 20.25
  Q 32.01 20.25 32.04 20.25
  A 0.17 0.07 -48.7 0 0 32.13 20.20
  Q 35.81 16.98 36.40 15.60
  C 37.82 12.26 35.74 8.51 31.95 8.53
  C 28.15 8.54 26.10 12.31 27.55 15.63
  Q 28.15 17.01 31.85 20.20
  A 0.17 0.07 48.3 0 0 31.94 20.25
  Q 31.97 20.25 32.00 20.25"
/>
<path stroke="#6e733a" vector-effect="non-scaling-stroke" d="
  M 23.75 23.67
  Q 23.76 23.66 23.78 23.64
  A 0.17 0.07 86.2 0 0 23.81 23.55
  Q 24.13 18.65 23.57 17.24
  C 22.21 13.87 18.07 12.69 15.38 15.40
  C 12.70 18.11 13.92 22.23 17.32 23.56
  Q 18.73 24.11 23.62 23.74
  A 0.17 0.07 3.2 0 0 23.71 23.71
  Q 23.74 23.69 23.75 23.67"
/>
<path stroke="#6e733a" vector-effect="non-scaling-stroke" d="
  M 40.25 23.68
  Q 40.27 23.70 40.29 23.72
  A 0.17 0.07 -3.8 0 0 40.38 23.75
  Q 45.26 24.06 46.66 23.50
  C 50.01 22.14 51.18 18.02 48.49 15.36
  C 45.79 12.69 41.69 13.91 40.37 17.28
  Q 39.82 18.68 40.19 23.56
  A 0.17 0.07 -86.8 0 0 40.22 23.65
  Q 40.24 23.67 40.25 23.68"
/>
<path stroke="#6e733a" vector-effect="non-scaling-stroke" d="
  M 26.50 26.47
  Q 26.35 26.62 26.30 26.62
  Q 22.94 26.58 19.65 26.61
  A 0.17 0.02 -54.8 0 0 19.55 26.73
  Q 19.53 26.75 19.52 26.78
  Q 19.50 26.81 19.50 26.85
  A 0.17 0.02 -80.2 0 0 19.49 27.00
  Q 21.79 29.35 24.20 31.69
  Q 24.24 31.73 24.24 31.94
  Q 24.24 32.15 24.20 32.19
  Q 21.79 34.53 19.49 36.88
  A 0.17 0.02 80.2 0 0 19.50 37.04
  Q 19.50 37.07 19.52 37.10
  Q 19.53 37.13 19.55 37.16
  A 0.17 0.02 54.8 0 0 19.65 37.27
  Q 22.94 37.30 26.30 37.26
  Q 26.35 37.26 26.50 37.41
  Q 26.65 37.56 26.65 37.61
  Q 26.61 40.97 26.64 44.26
  A 0.17 0.02 35.2 0 0 26.75 44.36
  Q 26.78 44.38 26.81 44.39
  Q 26.84 44.41 26.87 44.41
  A 0.17 0.02 9.8 0 0 27.03 44.42
  Q 29.38 42.12 31.72 39.71
  Q 31.76 39.67 31.97 39.67
  Q 32.18 39.67 32.22 39.71
  Q 34.56 42.12 36.91 44.42
  A 0.17 0.02 -9.8 0 0 37.06 44.41
  Q 37.10 44.41 37.13 44.40
  Q 37.16 44.38 37.18 44.36
  A 0.17 0.02 -35.2 0 0 37.30 44.26
  Q 37.33 40.97 37.29 37.61
  Q 37.29 37.56 37.44 37.41
  Q 37.59 37.26 37.64 37.26
  Q 41.00 37.30 44.29 37.27
  A 0.17 0.02 -54.8 0 0 44.39 37.16
  Q 44.41 37.13 44.42 37.10
  Q 44.44 37.07 44.44 37.04
  A 0.17 0.02 -80.2 0 0 44.45 36.88
  Q 42.14 34.54 39.74 32.19
  Q 39.70 32.15 39.70 31.94
  Q 39.70 31.73 39.74 31.69
  Q 42.14 29.35 44.45 27.00
  A 0.17 0.02 80.2 0 0 44.44 26.85
  Q 44.44 26.81 44.42 26.78
  Q 44.41 26.75 44.39 26.73
  A 0.17 0.02 54.8 0 0 44.29 26.61
  Q 41.00 26.58 37.64 26.62
  Q 37.59 26.63 37.44 26.48
  Q 37.29 26.33 37.29 26.27
  Q 37.33 22.91 37.30 19.62
  A 0.17 0.02 35.2 0 0 37.19 19.52
  Q 37.16 19.50 37.13 19.49
  Q 37.10 19.48 37.07 19.47
  A 0.17 0.02 9.8 0 0 36.91 19.46
  Q 34.56 21.77 32.22 24.17
  Q 32.18 24.21 31.97 24.21
  Q 31.76 24.21 31.72 24.17
  Q 29.38 21.77 27.03 19.46
  A 0.17 0.02 -9.8 0 0 26.87 19.47
  Q 26.84 19.48 26.81 19.49
  Q 26.78 19.50 26.75 19.52
  A 0.17 0.02 -35.2 0 0 26.64 19.62
  Q 26.61 22.91 26.65 26.27
  Q 26.65 26.32 26.50 26.47"
/>
<path stroke="#6e733a" vector-effect="non-scaling-stroke" d="
  M 20.29 31.93
  Q 20.29 31.92 20.29 31.89
  A 0.17 0.07 41.5 0 0 20.24 31.80
  Q 17.03 28.11 15.65 27.51
  C 12.31 26.08 8.56 28.15 8.56 31.95
  C 8.57 35.74 12.33 37.81 15.65 36.37
  Q 17.04 35.77 20.24 32.07
  A 0.17 0.07 -41.6 0 0 20.29 31.99
  Q 20.29 31.96 20.29 31.93"
/>
<path stroke="#6e733a" vector-effect="non-scaling-stroke" d="
  M 43.66 31.94
  Q 43.66 31.96 43.66 31.99
  A 0.17 0.07 41.5 0 0 43.70 32.08
  Q 46.91 35.77 48.29 36.37
  C 51.63 37.80 55.38 35.73 55.38 31.94
  C 55.38 28.14 51.62 26.07 48.29 27.51
  Q 46.90 28.11 43.70 31.81
  A 0.17 0.07 -41.6 0 0 43.66 31.89
  Q 43.66 31.92 43.66 31.94"
/>
<path stroke="#6e733a" vector-effect="non-scaling-stroke" d="
  M 23.72 40.23
  Q 23.70 40.21 23.68 40.19
  A 0.17 0.07 -3.2 0 0 23.59 40.16
  Q 18.72 39.80 17.31 40.35
  C 13.94 41.67 12.72 45.78 15.39 48.47
  C 18.06 51.17 22.18 49.99 23.54 46.63
  Q 24.10 45.23 23.78 40.36
  A 0.17 0.07 -86.2 0 0 23.75 40.26
  Q 23.73 40.24 23.72 40.23"
/>
<path stroke="#6e733a" vector-effect="non-scaling-stroke" d="
  M 40.23 40.20
  Q 40.21 40.21 40.19 40.23
  A 0.17 0.07 86.6 0 0 40.16 40.33
  Q 39.81 45.21 40.37 46.61
  C 41.70 49.98 45.82 51.18 48.51 48.50
  C 51.19 45.82 50.01 41.70 46.64 40.36
  Q 45.24 39.80 40.36 40.13
  A 0.17 0.07 3.6 0 0 40.26 40.16
  Q 40.24 40.18 40.23 40.20"
/>
<path stroke="#6e733a" vector-effect="non-scaling-stroke" d="
  M 31.95 43.62
  Q 31.93 43.62 31.90 43.62
  A 0.17 0.07 -48.5 0 0 31.81 43.66
  Q 28.12 46.87 27.53 48.26
  C 26.09 51.59 28.17 55.35 31.96 55.34
  C 35.76 55.34 37.82 51.58 36.38 48.25
  Q 35.78 46.87 32.09 43.66
  A 0.17 0.07 48.4 0 0 32.00 43.62
  Q 31.97 43.62 31.95 43.62"
/>
</g>
<path fill="#dce573" d="
  M 35.41 0.00
  Q 60.20 4.54 64.00 29.50
  L 64.00 34.25
  Q 60.09 60.13 34.14 64.00
  L 30.07 64.00
  Q 4.63 60.57 0.00 35.25
  L 0.00 28.53
  Q 4.36 4.43 28.43 0.00
  L 35.41 0.00
  Z
  M 24.09 12.92
  Q 23.95 12.98 23.85 12.91
  C 20.63 10.51 16.40 10.44 13.43 13.41
  C 10.47 16.37 10.54 20.60 12.93 23.82
  Q 13.01 23.92 12.95 24.06
  Q 12.89 24.20 12.77 24.22
  C 8.80 24.80 5.76 27.75 5.76 31.94
  C 5.76 36.13 8.80 39.07 12.77 39.66
  Q 12.89 39.67 12.95 39.81
  Q 13.01 39.95 12.93 40.05
  C 10.54 43.27 10.47 47.51 13.43 50.47
  C 16.40 53.44 20.63 53.36 23.85 50.97
  Q 23.95 50.90 24.09 50.95
  Q 24.23 51.01 24.25 51.13
  C 24.83 55.11 27.77 58.15 31.96 58.15
  C 36.16 58.15 39.10 55.11 39.68 51.13
  Q 39.70 51.01 39.84 50.95
  Q 39.98 50.90 40.08 50.97
  C 43.30 53.37 47.53 53.44 50.50 50.47
  C 53.46 47.51 53.39 43.28 51.00 40.05
  Q 50.92 39.96 50.98 39.82
  Q 51.04 39.68 51.16 39.66
  C 55.13 39.07 58.17 36.13 58.17 31.94
  C 58.17 27.75 55.13 24.80 51.16 24.22
  Q 51.04 24.20 50.98 24.06
  Q 50.92 23.92 51.00 23.82
  C 53.39 20.60 53.46 16.37 50.50 13.41
  C 47.53 10.44 43.30 10.51 40.08 12.91
  Q 39.98 12.98 39.84 12.92
  Q 39.70 12.87 39.68 12.74
  C 39.10 8.77 36.16 5.73 31.97 5.73
  C 27.77 5.73 24.83 8.77 24.25 12.74
  Q 24.23 12.87 24.09 12.92
  Z"
/>
<path fill="#000000" d="
  M 31.97 5.73
  C 36.16 5.73 39.10 8.77 39.68 12.74
  Q 39.70 12.87 39.84 12.92
  Q 39.98 12.98 40.08 12.91
  C 43.30 10.51 47.53 10.44 50.50 13.41
  C 53.46 16.37 53.39 20.60 51.00 23.82
  Q 50.92 23.92 50.98 24.06
  Q 51.04 24.20 51.16 24.22
  C 55.13 24.80 58.17 27.75 58.17 31.94
  C 58.17 36.13 55.13 39.07 51.16 39.66
  Q 51.04 39.68 50.98 39.82
  Q 50.92 39.96 51.00 40.05
  C 53.39 43.28 53.46 47.51 50.50 50.47
  C 47.53 53.44 43.30 53.37 40.08 50.97
  Q 39.98 50.90 39.84 50.95
  Q 39.70 51.01 39.68 51.13
  C 39.10 55.11 36.16 58.15 31.96 58.15
  C 27.77 58.15 24.83 55.11 24.25 51.13
  Q 24.23 51.01 24.09 50.95
  Q 23.95 50.90 23.85 50.97
  C 20.63 53.36 16.40 53.44 13.43 50.47
  C 10.47 47.51 10.54 43.27 12.93 40.05
  Q 13.01 39.95 12.95 39.81
  Q 12.89 39.67 12.77 39.66
  C 8.80 39.07 5.76 36.13 5.76 31.94
  C 5.76 27.75 8.80 24.80 12.77 24.22
  Q 12.89 24.20 12.95 24.06
  Q 13.01 23.92 12.93 23.82
  C 10.54 20.60 10.47 16.37 13.43 13.41
  C 16.40 10.44 20.63 10.51 23.85 12.91
  Q 23.95 12.98 24.09 12.92
  Q 24.23 12.87 24.25 12.74
  C 24.83 8.77 27.77 5.73 31.97 5.73
  Z
  M 32.00 20.25
  Q 32.01 20.25 32.04 20.25
  A 0.17 0.07 -48.7 0 0 32.13 20.20
  Q 35.81 16.98 36.40 15.60
  C 37.82 12.26 35.74 8.51 31.95 8.53
  C 28.15 8.54 26.10 12.31 27.55 15.63
  Q 28.15 17.01 31.85 20.20
  A 0.17 0.07 48.3 0 0 31.94 20.25
  Q 31.97 20.25 32.00 20.25
  Z
  M 23.75 23.67
  Q 23.76 23.66 23.78 23.64
  A 0.17 0.07 86.2 0 0 23.81 23.55
  Q 24.13 18.65 23.57 17.24
  C 22.21 13.87 18.07 12.69 15.38 15.40
  C 12.70 18.11 13.92 22.23 17.32 23.56
  Q 18.73 24.11 23.62 23.74
  A 0.17 0.07 3.2 0 0 23.71 23.71
  Q 23.74 23.69 23.75 23.67
  Z
  M 40.25 23.68
  Q 40.27 23.70 40.29 23.72
  A 0.17 0.07 -3.8 0 0 40.38 23.75
  Q 45.26 24.06 46.66 23.50
  C 50.01 22.14 51.18 18.02 48.49 15.36
  C 45.79 12.69 41.69 13.91 40.37 17.28
  Q 39.82 18.68 40.19 23.56
  A 0.17 0.07 -86.8 0 0 40.22 23.65
  Q 40.24 23.67 40.25 23.68
  Z
  M 26.50 26.47
  Q 26.35 26.62 26.30 26.62
  Q 22.94 26.58 19.65 26.61
  A 0.17 0.02 -54.8 0 0 19.55 26.73
  Q 19.53 26.75 19.52 26.78
  Q 19.50 26.81 19.50 26.85
  A 0.17 0.02 -80.2 0 0 19.49 27.00
  Q 21.79 29.35 24.20 31.69
  Q 24.24 31.73 24.24 31.94
  Q 24.24 32.15 24.20 32.19
  Q 21.79 34.53 19.49 36.88
  A 0.17 0.02 80.2 0 0 19.50 37.04
  Q 19.50 37.07 19.52 37.10
  Q 19.53 37.13 19.55 37.16
  A 0.17 0.02 54.8 0 0 19.65 37.27
  Q 22.94 37.30 26.30 37.26
  Q 26.35 37.26 26.50 37.41
  Q 26.65 37.56 26.65 37.61
  Q 26.61 40.97 26.64 44.26
  A 0.17 0.02 35.2 0 0 26.75 44.36
  Q 26.78 44.38 26.81 44.39
  Q 26.84 44.41 26.87 44.41
  A 0.17 0.02 9.8 0 0 27.03 44.42
  Q 29.38 42.12 31.72 39.71
  Q 31.76 39.67 31.97 39.67
  Q 32.18 39.67 32.22 39.71
  Q 34.56 42.12 36.91 44.42
  A 0.17 0.02 -9.8 0 0 37.06 44.41
  Q 37.10 44.41 37.13 44.40
  Q 37.16 44.38 37.18 44.36
  A 0.17 0.02 -35.2 0 0 37.30 44.26
  Q 37.33 40.97 37.29 37.61
  Q 37.29 37.56 37.44 37.41
  Q 37.59 37.26 37.64 37.26
  Q 41.00 37.30 44.29 37.27
  A 0.17 0.02 -54.8 0 0 44.39 37.16
  Q 44.41 37.13 44.42 37.10
  Q 44.44 37.07 44.44 37.04
  A 0.17 0.02 -80.2 0 0 44.45 36.88
  Q 42.14 34.54 39.74 32.19
  Q 39.70 32.15 39.70 31.94
  Q 39.70 31.73 39.74 31.69
  Q 42.14 29.35 44.45 27.00
  A 0.17 0.02 80.2 0 0 44.44 26.85
  Q 44.44 26.81 44.42 26.78
  Q 44.41 26.75 44.39 26.73
  A 0.17 0.02 54.8 0 0 44.29 26.61
  Q 41.00 26.58 37.64 26.62
  Q 37.59 26.63 37.44 26.48
  Q 37.29 26.33 37.29 26.27
  Q 37.33 22.91 37.30 19.62
  A 0.17 0.02 35.2 0 0 37.19 19.52
  Q 37.16 19.50 37.13 19.49
  Q 37.10 19.48 37.07 19.47
  A 0.17 0.02 9.8 0 0 36.91 19.46
  Q 34.56 21.77 32.22 24.17
  Q 32.18 24.21 31.97 24.21
  Q 31.76 24.21 31.72 24.17
  Q 29.38 21.77 27.03 19.46
  A 0.17 0.02 -9.8 0 0 26.87 19.47
  Q 26.84 19.48 26.81 19.49
  Q 26.78 19.50 26.75 19.52
  A 0.17 0.02 -35.2 0 0 26.64 19.62
  Q 26.61 22.91 26.65 26.27
  Q 26.65 26.32 26.50 26.47
  Z
  M 20.29 31.93
  Q 20.29 31.92 20.29 31.89
  A 0.17 0.07 41.5 0 0 20.24 31.80
  Q 17.03 28.11 15.65 27.51
  C 12.31 26.08 8.56 28.15 8.56 31.95
  C 8.57 35.74 12.33 37.81 15.65 36.37
  Q 17.04 35.77 20.24 32.07
  A 0.17 0.07 -41.6 0 0 20.29 31.99
  Q 20.29 31.96 20.29 31.93
  Z
  M 43.66 31.94
  Q 43.66 31.96 43.66 31.99
  A 0.17 0.07 41.5 0 0 43.70 32.08
  Q 46.91 35.77 48.29 36.37
  C 51.63 37.80 55.38 35.73 55.38 31.94
  C 55.38 28.14 51.62 26.07 48.29 27.51
  Q 46.90 28.11 43.70 31.81
  A 0.17 0.07 -41.6 0 0 43.66 31.89
  Q 43.66 31.92 43.66 31.94
  Z
  M 23.72 40.23
  Q 23.70 40.21 23.68 40.19
  A 0.17 0.07 -3.2 0 0 23.59 40.16
  Q 18.72 39.80 17.31 40.35
  C 13.94 41.67 12.72 45.78 15.39 48.47
  C 18.06 51.17 22.18 49.99 23.54 46.63
  Q 24.10 45.23 23.78 40.36
  A 0.17 0.07 -86.2 0 0 23.75 40.26
  Q 23.73 40.24 23.72 40.23
  Z
  M 40.23 40.20
  Q 40.21 40.21 40.19 40.23
  A 0.17 0.07 86.6 0 0 40.16 40.33
  Q 39.81 45.21 40.37 46.61
  C 41.70 49.98 45.82 51.18 48.51 48.50
  C 51.19 45.82 50.01 41.70 46.64 40.36
  Q 45.24 39.80 40.36 40.13
  A 0.17 0.07 3.6 0 0 40.26 40.16
  Q 40.24 40.18 40.23 40.20
  Z
  M 31.95 43.62
  Q 31.93 43.62 31.90 43.62
  A 0.17 0.07 -48.5 0 0 31.81 43.66
  Q 28.12 46.87 27.53 48.26
  C 26.09 51.59 28.17 55.35 31.96 55.34
  C 35.76 55.34 37.82 51.58 36.38 48.25
  Q 35.78 46.87 32.09 43.66
  A 0.17 0.07 48.4 0 0 32.00 43.62
  Q 31.97 43.62 31.95 43.62
  Z"
/>
<path fill="#dce573" d="
  M 32.00 20.25
  Q 31.97 20.25 31.94 20.25
  A 0.17 0.07 48.3 0 1 31.85 20.20
  Q 28.15 17.01 27.55 15.63
  C 26.10 12.31 28.15 8.54 31.95 8.53
  C 35.74 8.51 37.82 12.26 36.40 15.60
  Q 35.81 16.98 32.13 20.20
  A 0.17 0.07 -48.7 0 1 32.04 20.25
  Q 32.01 20.25 32.00 20.25
  Z"
/>
<path fill="#dce573" d="
  M 23.75 23.67
  Q 23.74 23.69 23.71 23.71
  A 0.17 0.07 3.2 0 1 23.62 23.74
  Q 18.73 24.11 17.32 23.56
  C 13.92 22.23 12.70 18.11 15.38 15.40
  C 18.07 12.69 22.21 13.87 23.57 17.24
  Q 24.13 18.65 23.81 23.55
  A 0.17 0.07 86.2 0 1 23.78 23.64
  Q 23.76 23.66 23.75 23.67
  Z"
/>
<path fill="#dce573" d="
  M 40.25 23.68
  Q 40.24 23.67 40.22 23.65
  A 0.17 0.07 -86.8 0 1 40.19 23.56
  Q 39.82 18.68 40.37 17.28
  C 41.69 13.91 45.79 12.69 48.49 15.36
  C 51.18 18.02 50.01 22.14 46.66 23.50
  Q 45.26 24.06 40.38 23.75
  A 0.17 0.07 -3.8 0 1 40.29 23.72
  Q 40.27 23.70 40.25 23.68
  Z"
/>
<path fill="#dce573" d="
  M 26.81 19.49
  Q 26.84 19.48 26.87 19.47
  A 0.17 0.02 -9.8 0 1 27.03 19.46
  Q 29.38 21.77 31.72 24.17
  Q 31.76 24.21 31.97 24.21
  Q 32.18 24.21 32.22 24.17
  Q 34.56 21.77 36.91 19.46
  A 0.17 0.02 9.8 0 1 37.07 19.47
  Q 37.10 19.48 37.13 19.49
  Q 37.16 19.50 37.19 19.52
  A 0.17 0.02 35.2 0 1 37.30 19.62
  Q 37.33 22.91 37.29 26.27
  Q 37.29 26.33 37.44 26.48
  Q 37.59 26.63 37.64 26.62
  Q 41.00 26.58 44.29 26.61
  A 0.17 0.02 54.8 0 1 44.39 26.73
  Q 44.41 26.75 44.42 26.78
  Q 44.44 26.81 44.44 26.85
  A 0.17 0.02 80.2 0 1 44.45 27.00
  Q 42.14 29.35 39.74 31.69
  Q 39.70 31.73 39.70 31.94
  Q 39.70 32.15 39.74 32.19
  Q 42.14 34.54 44.45 36.88
  A 0.17 0.02 -80.2 0 1 44.44 37.04
  Q 44.44 37.07 44.42 37.10
  Q 44.41 37.13 44.39 37.16
  A 0.17 0.02 -54.8 0 1 44.29 37.27
  Q 41.00 37.30 37.64 37.26
  Q 37.59 37.26 37.44 37.41
  Q 37.29 37.56 37.29 37.61
  Q 37.33 40.97 37.30 44.26
  A 0.17 0.02 -35.2 0 1 37.18 44.36
  Q 37.16 44.38 37.13 44.40
  Q 37.10 44.41 37.06 44.41
  A 0.17 0.02 -9.8 0 1 36.91 44.42
  Q 34.56 42.12 32.22 39.71
  Q 32.18 39.67 31.97 39.67
  Q 31.76 39.67 31.72 39.71
  Q 29.38 42.12 27.03 44.42
  A 0.17 0.02 9.8 0 1 26.87 44.41
  Q 26.84 44.41 26.81 44.39
  Q 26.78 44.38 26.75 44.36
  A 0.17 0.02 35.2 0 1 26.64 44.26
  Q 26.61 40.97 26.65 37.61
  Q 26.65 37.56 26.50 37.41
  Q 26.35 37.26 26.30 37.26
  Q 22.94 37.30 19.65 37.27
  A 0.17 0.02 54.8 0 1 19.55 37.16
  Q 19.53 37.13 19.52 37.10
  Q 19.50 37.07 19.50 37.04
  A 0.17 0.02 80.2 0 1 19.49 36.88
  Q 21.79 34.53 24.20 32.19
  Q 24.24 32.15 24.24 31.94
  Q 24.24 31.73 24.20 31.69
  Q 21.79 29.35 19.49 27.00
  A 0.17 0.02 -80.2 0 1 19.50 26.85
  Q 19.50 26.81 19.52 26.78
  Q 19.53 26.75 19.55 26.73
  A 0.17 0.02 -54.8 0 1 19.65 26.61
  Q 22.94 26.58 26.30 26.62
  Q 26.35 26.62 26.50 26.47
  Q 26.65 26.32 26.65 26.27
  Q 26.61 22.91 26.64 19.62
  A 0.17 0.02 -35.2 0 1 26.75 19.52
  Q 26.78 19.50 26.81 19.49
  Z"
/>
<path fill="#dce573" d="
  M 20.29 31.93
  Q 20.29 31.96 20.29 31.99
  A 0.17 0.07 -41.6 0 1 20.24 32.07
  Q 17.04 35.77 15.65 36.37
  C 12.33 37.81 8.57 35.74 8.56 31.95
  C 8.56 28.15 12.31 26.08 15.65 27.51
  Q 17.03 28.11 20.24 31.80
  A 0.17 0.07 41.5 0 1 20.29 31.89
  Q 20.29 31.92 20.29 31.93
  Z"
/>
<path fill="#dce573" d="
  M 55.38 31.94
  C 55.38 35.73 51.63 37.80 48.29 36.37
  Q 46.91 35.77 43.70 32.08
  A 0.17 0.07 41.5 0 1 43.66 31.99
  Q 43.66 31.96 43.66 31.94
  Q 43.66 31.92 43.66 31.89
  A 0.17 0.07 -41.6 0 1 43.70 31.81
  Q 46.90 28.11 48.29 27.51
  C 51.62 26.07 55.38 28.14 55.38 31.94
  Z"
/>
<path fill="#dce573" d="
  M 23.72 40.23
  Q 23.73 40.24 23.75 40.26
  A 0.17 0.07 -86.2 0 1 23.78 40.36
  Q 24.10 45.23 23.54 46.63
  C 22.18 49.99 18.06 51.17 15.39 48.47
  C 12.72 45.78 13.94 41.67 17.31 40.35
  Q 18.72 39.80 23.59 40.16
  A 0.17 0.07 -3.2 0 1 23.68 40.19
  Q 23.70 40.21 23.72 40.23
  Z"
/>
<path fill="#dce573" d="
  M 40.23 40.20
  Q 40.24 40.18 40.26 40.16
  A 0.17 0.07 3.6 0 1 40.36 40.13
  Q 45.24 39.80 46.64 40.36
  C 50.01 41.70 51.19 45.82 48.51 48.50
  C 45.82 51.18 41.70 49.98 40.37 46.61
  Q 39.81 45.21 40.16 40.33
  A 0.17 0.07 86.6 0 1 40.19 40.23
  Q 40.21 40.21 40.23 40.20
  Z"
/>
<path fill="#dce573" d="
  M 31.95 43.62
  Q 31.97 43.62 32.00 43.62
  A 0.17 0.07 48.4 0 1 32.09 43.66
  Q 35.78 46.87 36.38 48.25
  C 37.82 51.58 35.76 55.34 31.96 55.34
  C 28.17 55.35 26.09 51.59 27.53 48.26
  Q 28.12 46.87 31.81 43.66
  A 0.17 0.07 -48.5 0 1 31.90 43.62
  Q 31.93 43.62 31.95 43.62
  Z"
/>
</svg>
