<?xml version="1.0" encoding="UTF-8" standalone="no"?>
<!DOCTYPE svg PUBLIC "-//W3C//DTD SVG 1.1//EN" "http://www.w3.org/Graphics/SVG/1.1/DTD/svg11.dtd">
<svg xmlns="http://www.w3.org/2000/svg" version="1.1" viewBox="0.00 0.00 64.00 64.00">
<g stroke-width="2.00" fill="none" stroke-linecap="butt">
<path stroke="#9771ba" vector-effect="non-scaling-stroke" d="
  M 54.0716 21.4515
  A 11.58 11.58 0.0 0 0 42.4714 9.8917
  L 21.4515 9.9284
  A 11.58 11.58 0.0 0 0 9.8917 21.5286
  L 9.9284 42.5485
  A 11.58 11.58 0.0 0 0 21.5286 54.1083
  L 42.5485 54.0716
  A 11.58 11.58 0.0 0 0 54.1083 42.4714
  L 54.0716 21.4515"
/>
<path stroke="#a287bc" vector-effect="non-scaling-stroke" d="
  M 19.03 28.38
  A 0.42 0.41 -45.2 0 1 19.76 28.37
  Q 20.67 30.09 22.27 30.18
  A 0.55 0.54 87.8 0 0 22.84 29.56
  Q 22.60 27.91 21.67 26.51
  A 1.21 1.20 -16.4 0 0 20.69 25.98
  C 15.16 25.87 14.54 31.27 18.71 33.87
  Q 20.04 34.69 20.01 36.16
  A 0.70 0.70 0.0 0 1 18.81 36.64
  L 17.38 35.21
  A 0.80 0.80 0.0 0 0 16.02 35.67
  C 15.38 40.57 23.12 40.99 22.99 36.05
  Q 22.92 33.44 20.76 31.92
  Q 19.80 31.25 19.45 30.50
  Q 18.73 28.96 19.03 28.38"
/>
<path stroke="#a287bc" vector-effect="non-scaling-stroke" d="
  M 24.01 26.75
  L 24.01 38.72
  A 0.61 0.61 0.0 0 0 24.62 39.33
  L 26.36 39.33
  A 0.63 0.63 0.0 0 0 26.99 38.70
  L 26.99 35.58
  A 0.71 0.71 0.0 0 1 27.71 34.87
  C 32.31 34.97 31.50 28.58 29.47 26.52
  A 1.50 1.50 0.0 0 0 28.41 26.08
  L 24.68 26.08
  A 0.67 0.67 0.0 0 0 24.01 26.75"
/>
<path stroke="#a287bc" vector-effect="non-scaling-stroke" d="
  M 31.92 26.72
  L 32.00 38.78
  A 0.62 0.62 0.0 0 0 32.63 39.39
  L 35.11 39.38
  A 5.58 4.94 89.6 0 0 40.01 33.76
  L 39.99 31.62
  A 5.58 4.94 89.6 0 0 35.01 26.08
  L 32.53 26.09
  A 0.62 0.62 0.0 0 0 31.92 26.72"
/>
<path stroke="#a287bc" vector-effect="non-scaling-stroke" d="
  M 44.77 37.48
  L 45.05 38.73
  A 0.72 0.72 0.0 0 0 45.75 39.29
  L 47.42 39.29
  A 0.48 0.47 83.6 0 0 47.88 38.71
  L 46.86 34.14
  A 1.32 1.30 52.1 0 1 46.96 33.28
  Q 49.48 27.84 45.69 26.26
  A 1.89 1.76 54.7 0 0 44.97 26.11
  L 41.90 26.11
  A 1.02 1.01 -90.0 0 0 40.89 27.13
  L 40.89 38.71
  A 0.57 0.57 0.0 0 0 41.46 39.28
  L 43.46 39.28
  A 0.69 0.69 0.0 0 0 44.15 38.59
  L 44.15 37.55
  A 0.31 0.31 0.0 0 1 44.77 37.48"
/>
<path stroke="#a287bc" vector-effect="non-scaling-stroke" d="
  M 27.5000 28.2200
  A 2.45 0.49 -90.0 0 0 27.0100 30.6700
  A 2.45 0.49 -90.0 0 0 27.5000 33.1200
  A 2.45 0.49 -90.0 0 0 27.9900 30.6700
  A 2.45 0.49 -90.0 0 0 27.5000 28.2200"
/>
<path stroke="#a287bc" vector-effect="non-scaling-stroke" d="
  M 35.10 28.64
  L 35.04 36.78
  A 0.13 0.13 0.0 0 0 35.17 36.91
  L 35.23 36.91
  A 3.82 1.71 -89.6 0 0 36.97 33.11
  L 36.97 32.35
  A 3.82 1.71 -89.6 0 0 35.29 28.51
  L 35.23 28.51
  A 0.13 0.13 0.0 0 0 35.10 28.64"
/>
<path stroke="#a287bc" vector-effect="non-scaling-stroke" d="
  M 44.5225 28.8703
  A 1.55 0.46 -88.8 0 0 44.0301 30.4104
  A 1.55 0.46 -88.8 0 0 44.4575 31.9697
  A 1.55 0.46 -88.8 0 0 44.9499 30.4296
  A 1.55 0.46 -88.8 0 0 44.5225 28.8703"
/>
</g>
<path fill="#e9d4fc" d="
  M 35.41 0.00
  Q 58.88 4.14 64.00 27.50
  L 64.00 36.14
  Q 59.29 59.30 36.16 64.00
  L 27.91 64.00
  Q 4.63 59.36 0.00 35.93
  L 0.00 28.62
  Q 4.26 4.51 28.39 0.00
  L 35.41 0.00
  Z
  M 54.0716 21.4515
  A 11.58 11.58 0.0 0 0 42.4714 9.8917
  L 21.4515 9.9284
  A 11.58 11.58 0.0 0 0 9.8917 21.5286
  L 9.9284 42.5485
  A 11.58 11.58 0.0 0 0 21.5286 54.1083
  L 42.5485 54.0716
  A 11.58 11.58 0.0 0 0 54.1083 42.4714
  L 54.0716 21.4515
  Z"
/>
<path fill="#450e78" d="
  M 54.1083 42.4714
  A 11.58 11.58 0.0 0 1 42.5485 54.0716
  L 21.5286 54.1083
  A 11.58 11.58 0.0 0 1 9.9284 42.5485
  L 9.8917 21.5286
  A 11.58 11.58 0.0 0 1 21.4515 9.9284
  L 42.4714 9.8917
  A 11.58 11.58 0.0 0 1 54.0716 21.4515
  L 54.1083 42.4714
  Z
  M 19.03 28.38
  A 0.42 0.41 -45.2 0 1 19.76 28.37
  Q 20.67 30.09 22.27 30.18
  A 0.55 0.54 87.8 0 0 22.84 29.56
  Q 22.60 27.91 21.67 26.51
  A 1.21 1.20 -16.4 0 0 20.69 25.98
  C 15.16 25.87 14.54 31.27 18.71 33.87
  Q 20.04 34.69 20.01 36.16
  A 0.70 0.70 0.0 0 1 18.81 36.64
  L 17.38 35.21
  A 0.80 0.80 0.0 0 0 16.02 35.67
  C 15.38 40.57 23.12 40.99 22.99 36.05
  Q 22.92 33.44 20.76 31.92
  Q 19.80 31.25 19.45 30.50
  Q 18.73 28.96 19.03 28.38
  Z
  M 24.01 26.75
  L 24.01 38.72
  A 0.61 0.61 0.0 0 0 24.62 39.33
  L 26.36 39.33
  A 0.63 0.63 0.0 0 0 26.99 38.70
  L 26.99 35.58
  A 0.71 0.71 0.0 0 1 27.71 34.87
  C 32.31 34.97 31.50 28.58 29.47 26.52
  A 1.50 1.50 0.0 0 0 28.41 26.08
  L 24.68 26.08
  A 0.67 0.67 0.0 0 0 24.01 26.75
  Z
  M 31.92 26.72
  L 32.00 38.78
  A 0.62 0.62 0.0 0 0 32.63 39.39
  L 35.11 39.38
  A 5.58 4.94 89.6 0 0 40.01 33.76
  L 39.99 31.62
  A 5.58 4.94 89.6 0 0 35.01 26.08
  L 32.53 26.09
  A 0.62 0.62 0.0 0 0 31.92 26.72
  Z
  M 44.77 37.48
  L 45.05 38.73
  A 0.72 0.72 0.0 0 0 45.75 39.29
  L 47.42 39.29
  A 0.48 0.47 83.6 0 0 47.88 38.71
  L 46.86 34.14
  A 1.32 1.30 52.1 0 1 46.96 33.28
  Q 49.48 27.84 45.69 26.26
  A 1.89 1.76 54.7 0 0 44.97 26.11
  L 41.90 26.11
  A 1.02 1.01 -90.0 0 0 40.89 27.13
  L 40.89 38.71
  A 0.57 0.57 0.0 0 0 41.46 39.28
  L 43.46 39.28
  A 0.69 0.69 0.0 0 0 44.15 38.59
  L 44.15 37.55
  A 0.31 0.31 0.0 0 1 44.77 37.48
  Z"
/>
<path fill="#ffffff" d="
  M 19.03 28.38
  Q 18.73 28.96 19.45 30.50
  Q 19.80 31.25 20.76 31.92
  Q 22.92 33.44 22.99 36.05
  C 23.12 40.99 15.38 40.57 16.02 35.67
  A 0.80 0.80 0.0 0 1 17.38 35.21
  L 18.81 36.64
  A 0.70 0.70 0.0 0 0 20.01 36.16
  Q 20.04 34.69 18.71 33.87
  C 14.54 31.27 15.16 25.87 20.69 25.98
  A 1.21 1.20 -16.4 0 1 21.67 26.51
  Q 22.60 27.91 22.84 29.56
  A 0.55 0.54 87.8 0 1 22.27 30.18
  Q 20.67 30.09 19.76 28.37
  A 0.42 0.41 -45.2 0 0 19.03 28.38
  Z"
/>
<path fill="#ffffff" d="
  M 24.68 26.08
  L 28.41 26.08
  A 1.50 1.50 0.0 0 1 29.47 26.52
  C 31.50 28.58 32.31 34.97 27.71 34.87
  A 0.71 0.71 0.0 0 0 26.99 35.58
  L 26.99 38.70
  A 0.63 0.63 0.0 0 1 26.36 39.33
  L 24.62 39.33
  A 0.61 0.61 0.0 0 1 24.01 38.72
  L 24.01 26.75
  A 0.67 0.67 0.0 0 1 24.68 26.08
  Z
  M 27.5000 28.2200
  A 2.45 0.49 -90.0 0 0 27.0100 30.6700
  A 2.45 0.49 -90.0 0 0 27.5000 33.1200
  A 2.45 0.49 -90.0 0 0 27.9900 30.6700
  A 2.45 0.49 -90.0 0 0 27.5000 28.2200
  Z"
/>
<path fill="#ffffff" d="
  M 31.92 26.72
  A 0.62 0.62 0.0 0 1 32.53 26.09
  L 35.01 26.08
  A 5.58 4.94 89.6 0 1 39.99 31.62
  L 40.01 33.76
  A 5.58 4.94 89.6 0 1 35.11 39.38
  L 32.63 39.39
  A 0.62 0.62 0.0 0 1 32.00 38.78
  L 31.92 26.72
  Z
  M 35.10 28.64
  L 35.04 36.78
  A 0.13 0.13 0.0 0 0 35.17 36.91
  L 35.23 36.91
  A 3.82 1.71 -89.6 0 0 36.97 33.11
  L 36.97 32.35
  A 3.82 1.71 -89.6 0 0 35.29 28.51
  L 35.23 28.51
  A 0.13 0.13 0.0 0 0 35.10 28.64
  Z"
/>
<path fill="#ffffff" d="
  M 44.15 37.55
  L 44.15 38.59
  A 0.69 0.69 0.0 0 1 43.46 39.28
  L 41.46 39.28
  A 0.57 0.57 0.0 0 1 40.89 38.71
  L 40.89 27.13
  A 1.02 1.01 -90.0 0 1 41.90 26.11
  L 44.97 26.11
  A 1.89 1.76 54.7 0 1 45.69 26.26
  Q 49.48 27.84 46.96 33.28
  A 1.32 1.30 52.1 0 0 46.86 34.14
  L 47.88 38.71
  A 0.48 0.47 83.6 0 1 47.42 39.29
  L 45.75 39.29
  A 0.72 0.72 0.0 0 1 45.05 38.73
  L 44.77 37.48
  A 0.31 0.31 0.0 0 0 44.15 37.55
  Z
  M 44.5225 28.8703
  A 1.55 0.46 -88.8 0 0 44.0301 30.4104
  A 1.55 0.46 -88.8 0 0 44.4575 31.9697
  A 1.55 0.46 -88.8 0 0 44.9499 30.4296
  A 1.55 0.46 -88.8 0 0 44.5225 28.8703
  Z"
/>
<ellipse fill="#450e78" cx="0.00" cy="0.00" transform="translate(27.50,30.67) rotate(-90.0)" rx="2.45" ry="0.49"/>
<path fill="#450e78" d="
  M 35.10 28.64
  A 0.13 0.13 0.0 0 1 35.23 28.51
  L 35.29 28.51
  A 3.82 1.71 -89.6 0 1 36.97 32.35
  L 36.97 33.11
  A 3.82 1.71 -89.6 0 1 35.23 36.91
  L 35.17 36.91
  A 0.13 0.13 0.0 0 1 35.04 36.78
  L 35.10 28.64
  Z"
/>
<ellipse fill="#450e78" cx="0.00" cy="0.00" transform="translate(44.49,30.42) rotate(-88.8)" rx="1.55" ry="0.46"/>
</svg>
