<?xml version="1.0" encoding="UTF-8" standalone="no"?>
<!DOCTYPE svg PUBLIC "-//W3C//DTD SVG 1.1//EN" "http://www.w3.org/Graphics/SVG/1.1/DTD/svg11.dtd">
<svg xmlns="http://www.w3.org/2000/svg" version="1.1" viewBox="0.00 0.00 64.00 64.00">
<g stroke-width="2.00" fill="none" stroke-linecap="butt">
<path stroke="#7d1040" vector-effect="non-scaling-stroke" d="
  M 36.25 5.39
  Q 35.96 4.53 34.92 4.34
  C 20.55 1.68 8.25 9.31 3.87 23.17
  A 2.90 2.89 -58.8 0 0 4.58 26.09
  L 6.29 27.80
  A 1.00 1.00 0.0 0 0 7.95 27.38
  Q 13.94 7.29 35.90 5.91
  A 0.39 0.39 0.0 0 0 36.25 5.39"
/>
<path stroke="#808080" vector-effect="non-scaling-stroke" d="
  M 59.87 33.75
  A 24.87 24.87 0.0 0 0 35.00 8.88
  A 24.87 24.87 0.0 0 0 10.13 33.75
  A 24.87 24.87 0.0 0 0 35.00 58.62
  A 24.87 24.87 0.0 0 0 59.87 33.75"
/>
<path stroke="#7d1040" vector-effect="non-scaling-stroke" d="
  M 2.72 30.32
  L 6.37 36.96
  A 0.03 0.03 0.0 0 0 6.41 36.98
  L 6.48 36.94
  A 3.66 2.78 61.2 0 0 7.15 32.40
  L 6.99 32.12
  A 3.66 2.78 61.2 0 0 2.80 30.25
  L 2.73 30.28
  A 0.03 0.03 0.0 0 0 2.72 30.32"
/>
<path stroke="#7d1040" vector-effect="non-scaling-stroke" d="
  M 6.3168 39.9886
  A 2.71 0.65 -124.2 0 0 7.3024 42.5954
  A 2.71 0.65 -124.2 0 0 9.3632 44.4714
  A 2.71 0.65 -124.2 0 0 8.3776 41.8646
  A 2.71 0.65 -124.2 0 0 6.3168 39.9886"
/>
<path stroke="#808080" vector-effect="non-scaling-stroke" d="
  M 17.52 31.33
  L 16.79 27.14
  A 1.28 1.27 80.1 0 0 15.32 26.10
  L 13.80 26.37
  A 1.10 1.10 0.0 0 0 12.93 27.75
  Q 14.27 32.40 15.47 38.59
  C 15.85 40.51 17.31 40.33 18.99 39.93
  A 1.04 1.02 88.8 0 0 19.77 39.10
  Q 19.96 38.00 22.46 31.18
  Q 22.57 30.89 22.46 27.48
  A 1.41 1.40 -5.9 0 0 20.81 26.14
  L 20.15 26.25
  A 1.98 1.98 0.0 0 0 18.51 28.29
  Q 18.57 29.74 18.07 31.36
  A 0.28 0.28 0.0 0 1 17.52 31.33"
/>
<path stroke="#808080" vector-effect="non-scaling-stroke" d="
  M 25.52 39.70
  L 28.63 27.57
  A 1.07 1.07 0.0 0 0 27.86 26.27
  L 27.07 26.06
  A 6.74 2.95 -75.6 0 0 22.53 31.86
  L 22.24 33.00
  A 6.74 2.95 -75.6 0 0 23.42 40.26
  L 24.21 40.47
  A 1.07 1.07 0.0 0 0 25.52 39.70"
/>
<path stroke="#808080" vector-effect="non-scaling-stroke" d="
  M 33.08 35.37
  A 0.61 0.60 88.0 0 1 33.64 34.76
  C 34.49 34.70 35.64 34.45 36.00 33.53
  Q 36.66 31.83 33.23 31.00
  A 0.35 0.35 0.0 0 1 33.17 30.33
  L 36.98 28.76
  A 0.96 0.95 -29.1 0 1 38.12 29.08
  C 39.47 30.95 38.95 34.75 38.75 38.61
  A 1.46 1.46 0.0 0 0 40.21 40.15
  L 41.45 40.15
  A 1.20 1.20 0.0 0 0 42.65 38.95
  L 42.65 31.54
  A 3.56 3.51 67.8 0 1 43.68 29.04
  L 44.22 28.50
  A 0.96 0.96 0.0 0 1 45.86 29.18
  L 45.86 38.97
  A 1.13 1.13 0.0 0 0 46.99 40.10
  L 48.71 40.10
  A 1.15 1.14 -90.0 0 0 49.85 38.95
  L 49.85 34.95
  A 0.52 0.51 -0.0 0 1 50.37 34.44
  L 50.70 34.44
  A 0.83 0.83 0.0 0 1 51.53 35.27
  L 51.53 39.02
  A 1.10 1.10 0.0 0 0 52.63 40.12
  L 53.65 40.12
  A 1.53 1.52 0.0 0 0 55.18 38.60
  L 55.18 27.22
  A 0.89 0.88 -0.0 0 0 54.29 26.34
  L 52.18 26.34
  A 0.68 0.67 -6.7 0 0 51.52 27.17
  Q 51.79 28.35 51.38 30.42
  A 0.65 0.65 0.0 0 1 50.38 30.84
  L 50.35 30.82
  A 1.40 1.40 0.0 0 1 49.74 29.48
  Q 50.18 25.96 48.02 26.20
  Q 46.44 26.37 46.10 26.53
  A 2.08 2.04 40.1 0 1 44.67 26.64
  Q 41.52 25.74 37.95 26.60
  A 3.64 3.62 45.2 0 1 36.21 26.59
  Q 33.06 25.78 30.11 26.48
  A 0.88 0.88 0.0 0 0 29.43 27.34
  L 29.43 39.32
  A 0.65 0.65 0.0 0 0 29.97 39.96
  Q 32.19 40.34 35.80 39.90
  A 1.41 1.37 76.7 0 0 36.91 38.05
  Q 36.29 36.24 33.35 35.97
  A 0.30 0.30 0.0 0 1 33.08 35.67
  L 33.08 35.37"
/>
</g>
<path fill="#000000" d="
  M 9.35 50.86
  A 0.79 0.79 0.0 0 0 9.84 49.49
  Q 2.53 42.65 1.04 33.64
  A 5.48 5.31 -47.7 0 1 1.00 32.33
  C 1.32 29.14 0.81 25.94 1.59 22.45
  C 4.44 9.72 15.98 0.94 29.26 1.59
  Q 37.23 1.98 42.42 5.35
  C 45.50 7.35 51.96 11.08 54.96 14.53
  C 70.02 31.89 61.26 57.91 37.78 61.21
  C 30.76 62.19 24.43 61.94 16.26 61.97
  C 12.26 61.98 3.63 61.41 2.12 57.15
  C 0.69 53.13 6.26 51.05 9.35 50.86
  Z
  M 36.25 5.39
  Q 35.96 4.53 34.92 4.34
  C 20.55 1.68 8.25 9.31 3.87 23.17
  A 2.90 2.89 -58.8 0 0 4.58 26.09
  L 6.29 27.80
  A 1.00 1.00 0.0 0 0 7.95 27.38
  Q 13.94 7.29 35.90 5.91
  A 0.39 0.39 0.0 0 0 36.25 5.39
  Z
  M 59.87 33.75
  A 24.87 24.87 0.0 0 0 35.00 8.88
  A 24.87 24.87 0.0 0 0 10.13 33.75
  A 24.87 24.87 0.0 0 0 35.00 58.62
  A 24.87 24.87 0.0 0 0 59.87 33.75
  Z
  M 2.72 30.32
  L 6.37 36.96
  A 0.03 0.03 0.0 0 0 6.41 36.98
  L 6.48 36.94
  A 3.66 2.78 61.2 0 0 7.15 32.40
  L 6.99 32.12
  A 3.66 2.78 61.2 0 0 2.80 30.25
  L 2.73 30.28
  A 0.03 0.03 0.0 0 0 2.72 30.32
  Z
  M 6.3168 39.9886
  A 2.71 0.65 -124.2 0 0 7.3024 42.5954
  A 2.71 0.65 -124.2 0 0 9.3632 44.4714
  A 2.71 0.65 -124.2 0 0 8.3776 41.8646
  A 2.71 0.65 -124.2 0 0 6.3168 39.9886
  Z"
/>
<path fill="#f91f7f" d="
  M 36.25 5.39
  A 0.39 0.39 0.0 0 1 35.90 5.91
  Q 13.94 7.29 7.95 27.38
  A 1.00 1.00 0.0 0 1 6.29 27.80
  L 4.58 26.09
  A 2.90 2.89 -58.8 0 1 3.87 23.17
  C 8.25 9.31 20.55 1.68 34.92 4.34
  Q 35.96 4.53 36.25 5.39
  Z"
/>
<path fill="#ffffff" d="
  M 59.87 33.75
  A 24.87 24.87 0.0 0 1 35.00 58.62
  A 24.87 24.87 0.0 0 1 10.13 33.75
  A 24.87 24.87 0.0 0 1 35.00 8.88
  A 24.87 24.87 0.0 0 1 59.87 33.75
  Z
  M 17.52 31.33
  L 16.79 27.14
  A 1.28 1.27 80.1 0 0 15.32 26.10
  L 13.80 26.37
  A 1.10 1.10 0.0 0 0 12.93 27.75
  Q 14.27 32.40 15.47 38.59
  C 15.85 40.51 17.31 40.33 18.99 39.93
  A 1.04 1.02 88.8 0 0 19.77 39.10
  Q 19.96 38.00 22.46 31.18
  Q 22.57 30.89 22.46 27.48
  A 1.41 1.40 -5.9 0 0 20.81 26.14
  L 20.15 26.25
  A 1.98 1.98 0.0 0 0 18.51 28.29
  Q 18.57 29.74 18.07 31.36
  A 0.28 0.28 0.0 0 1 17.52 31.33
  Z
  M 25.52 39.70
  L 28.63 27.57
  A 1.07 1.07 0.0 0 0 27.86 26.27
  L 27.07 26.06
  A 6.74 2.95 -75.6 0 0 22.53 31.86
  L 22.24 33.00
  A 6.74 2.95 -75.6 0 0 23.42 40.26
  L 24.21 40.47
  A 1.07 1.07 0.0 0 0 25.52 39.70
  Z
  M 33.08 35.37
  A 0.61 0.60 88.0 0 1 33.64 34.76
  C 34.49 34.70 35.64 34.45 36.00 33.53
  Q 36.66 31.83 33.23 31.00
  A 0.35 0.35 0.0 0 1 33.17 30.33
  L 36.98 28.76
  A 0.96 0.95 -29.1 0 1 38.12 29.08
  C 39.47 30.95 38.95 34.75 38.75 38.61
  A 1.46 1.46 0.0 0 0 40.21 40.15
  L 41.45 40.15
  A 1.20 1.20 0.0 0 0 42.65 38.95
  L 42.65 31.54
  A 3.56 3.51 67.8 0 1 43.68 29.04
  L 44.22 28.50
  A 0.96 0.96 0.0 0 1 45.86 29.18
  L 45.86 38.97
  A 1.13 1.13 0.0 0 0 46.99 40.10
  L 48.71 40.10
  A 1.15 1.14 -90.0 0 0 49.85 38.95
  L 49.85 34.95
  A 0.52 0.51 -0.0 0 1 50.37 34.44
  L 50.70 34.44
  A 0.83 0.83 0.0 0 1 51.53 35.27
  L 51.53 39.02
  A 1.10 1.10 0.0 0 0 52.63 40.12
  L 53.65 40.12
  A 1.53 1.52 0.0 0 0 55.18 38.60
  L 55.18 27.22
  A 0.89 0.88 -0.0 0 0 54.29 26.34
  L 52.18 26.34
  A 0.68 0.67 -6.7 0 0 51.52 27.17
  Q 51.79 28.35 51.38 30.42
  A 0.65 0.65 0.0 0 1 50.38 30.84
  L 50.35 30.82
  A 1.40 1.40 0.0 0 1 49.74 29.48
  Q 50.18 25.96 48.02 26.20
  Q 46.44 26.37 46.10 26.53
  A 2.08 2.04 40.1 0 1 44.67 26.64
  Q 41.52 25.74 37.95 26.60
  A 3.64 3.62 45.2 0 1 36.21 26.59
  Q 33.06 25.78 30.11 26.48
  A 0.88 0.88 0.0 0 0 29.43 27.34
  L 29.43 39.32
  A 0.65 0.65 0.0 0 0 29.97 39.96
  Q 32.19 40.34 35.80 39.90
  A 1.41 1.37 76.7 0 0 36.91 38.05
  Q 36.29 36.24 33.35 35.97
  A 0.30 0.30 0.0 0 1 33.08 35.67
  L 33.08 35.37
  Z"
/>
<path fill="#000000" d="
  M 18.07 31.36
  Q 18.57 29.74 18.51 28.29
  A 1.98 1.98 0.0 0 1 20.15 26.25
  L 20.81 26.14
  A 1.41 1.40 -5.9 0 1 22.46 27.48
  Q 22.57 30.89 22.46 31.18
  Q 19.96 38.00 19.77 39.10
  A 1.04 1.02 88.8 0 1 18.99 39.93
  C 17.31 40.33 15.85 40.51 15.47 38.59
  Q 14.27 32.40 12.93 27.75
  A 1.10 1.10 0.0 0 1 13.80 26.37
  L 15.32 26.10
  A 1.28 1.27 80.1 0 1 16.79 27.14
  L 17.52 31.33
  A 0.28 0.28 0.0 0 0 18.07 31.36
  Z"
/>
<path fill="#000000" d="
  M 25.52 39.70
  A 1.07 1.07 0.0 0 1 24.21 40.47
  L 23.42 40.26
  A 6.74 2.95 -75.6 0 1 22.24 33.00
  L 22.53 31.86
  A 6.74 2.95 -75.6 0 1 27.07 26.06
  L 27.86 26.27
  A 1.07 1.07 0.0 0 1 28.63 27.57
  L 25.52 39.70
  Z"
/>
<path fill="#000000" d="
  M 33.35 35.97
  Q 36.29 36.24 36.91 38.05
  A 1.41 1.37 76.7 0 1 35.80 39.90
  Q 32.19 40.34 29.97 39.96
  A 0.65 0.65 0.0 0 1 29.43 39.32
  L 29.43 27.34
  A 0.88 0.88 0.0 0 1 30.11 26.48
  Q 33.06 25.78 36.21 26.59
  A 3.64 3.62 45.2 0 0 37.95 26.60
  Q 41.52 25.74 44.67 26.64
  A 2.08 2.04 40.1 0 0 46.10 26.53
  Q 46.44 26.37 48.02 26.20
  Q 50.18 25.96 49.74 29.48
  A 1.40 1.40 0.0 0 0 50.35 30.82
  L 50.38 30.84
  A 0.65 0.65 0.0 0 0 51.38 30.42
  Q 51.79 28.35 51.52 27.17
  A 0.68 0.67 -6.7 0 1 52.18 26.34
  L 54.29 26.34
  A 0.89 0.88 -0.0 0 1 55.18 27.22
  L 55.18 38.60
  A 1.53 1.52 -0.0 0 1 53.65 40.12
  L 52.63 40.12
  A 1.10 1.10 0.0 0 1 51.53 39.02
  L 51.53 35.27
  A 0.83 0.83 0.0 0 0 50.70 34.44
  L 50.37 34.44
  A 0.52 0.51 -0.0 0 0 49.85 34.95
  L 49.85 38.95
  A 1.15 1.14 90.0 0 1 48.71 40.10
  L 46.99 40.10
  A 1.13 1.13 0.0 0 1 45.86 38.97
  L 45.86 29.18
  A 0.96 0.96 0.0 0 0 44.22 28.50
  L 43.68 29.04
  A 3.56 3.51 67.8 0 0 42.65 31.54
  L 42.65 38.95
  A 1.20 1.20 0.0 0 1 41.45 40.15
  L 40.21 40.15
  A 1.46 1.46 0.0 0 1 38.75 38.61
  C 38.95 34.75 39.47 30.95 38.12 29.08
  A 0.96 0.95 -29.1 0 0 36.98 28.76
  L 33.17 30.33
  A 0.35 0.35 0.0 0 0 33.23 31.00
  Q 36.66 31.83 36.00 33.53
  C 35.64 34.45 34.49 34.70 33.64 34.76
  A 0.61 0.60 88.0 0 0 33.08 35.37
  L 33.08 35.67
  A 0.30 0.30 0.0 0 0 33.35 35.97
  Z"
/>
<path fill="#f91f7f" d="
  M 2.72 30.32
  A 0.03 0.03 0.0 0 1 2.73 30.28
  L 2.80 30.25
  A 3.66 2.78 61.2 0 1 6.99 32.12
  L 7.15 32.40
  A 3.66 2.78 61.2 0 1 6.48 36.94
  L 6.41 36.98
  A 0.03 0.03 0.0 0 1 6.37 36.96
  L 2.72 30.32
  Z"
/>
<ellipse fill="#f91f7f" cx="0.00" cy="0.00" transform="translate(7.84,42.23) rotate(-124.2)" rx="2.71" ry="0.65"/>
</svg>
