<?xml version="1.0" encoding="UTF-8"?>
<svg version="1.1" xmlns="http://www.w3.org/2000/svg" width="1024" height="1024">
<path d="M0 0 C337.92 0 675.84 0 1024 0 C1024 337.92 1024 675.84 1024 1024 C686.08 1024 348.16 1024 0 1024 C0 686.08 0 348.16 0 0 Z " fill="#FEFEFE" transform="translate(0,0)"/>
<path d="M0 0 C21.78 0 43.56 0 66 0 C66 10.56 66 21.12 66 32 C76.56 32 87.12 32 98 32 C98 42.89 98 53.78 98 65 C108.89 65 119.78 65 131 65 C131 75.56 131 86.12 131 97 C141.56 97 152.12 97 163 97 C163 107.89 163 118.78 163 130 C173.89 130 184.78 130 196 130 C196 151.45 196 172.9 196 195 C206.56 195 217.12 195 228 195 C228 205.56 228 216.12 228 227 C249.45 227 270.9 227 293 227 C293 237.89 293 248.78 293 260 C314.45 260 335.9 260 358 260 C358 270.56 358 281.12 358 292 C367.9 292 377.8 292 388 292 C388 302.89 388 313.78 388 325 C367.21 325 346.42 325 325 325 C325 314.44 325 303.88 325 293 C314.44 293 303.88 293 293 293 C293 303.56 293 314.12 293 325 C282.11 325 271.22 325 260 325 C260 314.44 260 303.88 260 293 C238.88 293 217.76 293 196 293 C196 303.56 196 314.12 196 325 C206.56 325 217.12 325 228 325 C228 335.56 228 346.12 228 357 C238.48623165 356.96040089 238.48623165 356.96040089 248.97241211 356.90991211 C250.26928955 356.90741455 251.56616699 356.90491699 252.90234375 356.90234375 C253.58816528 356.89722778 254.27398682 356.89211182 254.98059082 356.88684082 C256.65415231 356.88652946 258.3275958 356.93777163 260 357 C261 358 261 358 261.11352539 361.05102539 C261.11327443 362.39991269 261.10771815 363.74880645 261.09765625 365.09765625 C261.09515869 366.39453369 261.09266113 367.69141113 261.09008789 369.02758789 C261.07643188 371.51986938 261.07643188 371.51986938 261.0625 374.0625 C261.041875 379.321875 261.02125 384.58125 261 390 C249.78 390 238.56 390 227 390 C227 379.77 227 369.54 227 359 C205.88 359 184.76 359 163 359 C163 348.11 163 337.22 163 326 C152.44 326 141.88 326 131 326 C131 336.56 131 347.12 131 358 C120.11 358 109.22 358 98 358 C98 368.89 98 379.78 98 391 C87.44 391 76.88 391 66 391 C66 401.89 66 412.78 66 424 C55.11 424 44.22 424 33 424 C33 434.23 33 444.46 33 455 C22.11 455 11.22 455 0 455 C0 444.11 0 433.22 0 422 C10.89 422 21.78 422 33 422 C33 411.44 33 400.88 33 390 C43.56 390 54.12 390 65 390 C65 368.55 65 347.1 65 325 C75.89 325 86.78 325 98 325 C98 314.11 98 303.22 98 292 C108.56 292 119.12 292 130 292 C130 270.88 130 249.76 130 228 C119.44 228 108.88 228 98 228 C98 206.88 98 185.76 98 164 C87.11 164 76.22 164 65 164 C65 142.55 65 121.1 65 99 C54.44 99 43.88 99 33 99 C33 88.44 33 77.88 33 67 C22.44 67 11.88 67 1 67 C1.01160156 71.53621094 1.02320313 76.07242188 1.03515625 80.74609375 C1.04026323 83.61263163 1.04507701 86.47916394 1.04882812 89.34570312 C1.05481573 93.89983275 1.06191383 98.45394235 1.07543945 103.00805664 C1.0862712 106.67792544 1.09227744 110.34777278 1.09487724 114.01765633 C1.09673097 115.42074992 1.1003506 116.82384229 1.10573006 118.2269268 C1.11294419 120.1856968 1.11340809 122.1444882 1.11352539 124.10327148 C1.115746 125.22023911 1.11796661 126.33720673 1.12025452 127.48802185 C1 130 1 130 0 131 C-10.56 131 -21.12 131 -32 131 C-32 152.45 -32 173.9 -32 196 C-42.56 196 -53.12 196 -64 196 C-64 217.45 -64 238.9 -64 261 C-74.56 261 -85.12 261 -96 261 C-95.9607414 268.1639805 -95.9607414 268.1639805 -95.90991211 275.32788086 C-95.90616577 276.69505249 -95.90616577 276.69505249 -95.90234375 278.08984375 C-95.89448853 279.46450806 -95.89448853 279.46450806 -95.88647461 280.86694336 C-96.03353989 284.92562881 -96.55149903 288.96349128 -97 293 C-107.56 293 -118.12 293 -129 293 C-129 303.56 -129 314.12 -129 325 C-118.44 325 -107.88 325 -97 325 C-97 336.22 -97 347.44 -97 359 C-107.89 359 -118.78 359 -130 359 C-130 348.11 -130 337.22 -130 326 C-151.45 326 -172.9 326 -195 326 C-195 315.44 -195 304.88 -195 294 C-201.91259766 294.01740234 -201.91259766 294.01740234 -208.96484375 294.03515625 C-211.87695452 294.04026321 -214.78905981 294.045077 -217.70117188 294.04882812 C-222.3277297 294.05481579 -226.95426782 294.06191404 -231.58081055 294.07543945 C-235.30903401 294.086271 -239.03723634 294.0922774 -242.76547432 294.09487724 C-244.19089656 294.09673101 -245.61631759 294.10035071 -247.04173088 294.10573006 C-249.03163408 294.11294393 -251.02155834 294.11340808 -253.01147461 294.11352539 C-254.14620712 294.115746 -255.28093964 294.11796661 -256.45005798 294.12025452 C-259 294 -259 294 -260 293 C-260.0883967 290.6243148 -260.11530305 288.27791326 -260.09765625 285.90234375 C-260.0962413 285.19348526 -260.09482635 284.48462677 -260.09336853 283.75428772 C-260.08775443 281.48198288 -260.07519963 279.20977525 -260.0625 276.9375 C-260.05748681 275.40039204 -260.05292359 273.86328255 -260.04882812 272.32617188 C-260.0386297 268.55071333 -260.01905732 264.77546596 -260 261 C-270.23 261 -280.46 261 -291 261 C-291 271.89 -291 282.78 -291 294 C-301.89 294 -312.78 294 -324 294 C-324 304.23 -324 314.46 -324 325 C-334.56 325 -345.12 325 -356 325 C-356 335.89 -356 346.78 -356 358 C-366.56 358 -377.12 358 -388 358 C-388 347.11 -388 336.22 -388 325 C-377.77 325 -367.54 325 -357 325 C-357 314.11 -357 303.22 -357 292 C-346.44 292 -335.88 292 -325 292 C-325.03959822 281.84286908 -325.03959822 281.84286908 -325.09008789 271.68579102 C-325.09258545 270.42951904 -325.09508301 269.17324707 -325.09765625 267.87890625 C-325.10289307 266.5854126 -325.10812988 265.29191895 -325.11352539 263.95922852 C-325 261 -325 261 -324 260 C-321.62458949 259.91161352 -319.2776642 259.88462477 -316.90234375 259.90234375 C-314.95702759 259.90609009 -314.95702759 259.90609009 -312.97241211 259.90991211 C-311.31089111 259.91901611 -309.64937012 259.92812012 -307.9375 259.9375 C-302.678125 259.958125 -297.41875 259.97875 -292 260 C-292 249.11 -292 238.22 -292 227 C-281.44 227 -270.88 227 -260 227 C-260 216.44 -260 205.88 -260 195 C-248.78 195 -237.56 195 -226 195 C-226 205.56 -226 216.12 -226 227 C-215.44 227 -204.88 227 -194 227 C-194 237.89 -194 248.78 -194 260 C-183.44 260 -172.88 260 -162 260 C-162 270.56 -162 281.12 -162 292 C-151.44 292 -140.88 292 -130 292 C-130 281.44 -130 270.88 -130 260 C-119.11 260 -108.22 260 -97 260 C-97 238.55 -97 217.1 -97 195 C-86.44 195 -75.88 195 -65 195 C-65 173.55 -65 152.1 -65 130 C-54.11 130 -43.22 130 -32 130 C-32 108.55 -32 87.1 -32 65 C-21.44 65 -10.88 65 0 65 C0 43.55 0 22.1 0 0 Z " fill="#CFA965" transform="translate(513,158)"/>
<path d="M0 0 C64.35 0 128.7 0 195 0 C195 10.89 195 21.78 195 33 C130.65 33 66.3 33 0 33 C0 22.11 0 11.22 0 0 Z " fill="#808080" transform="translate(286,710)"/>
<path d="M0 0 C10.89 0 21.78 0 33 0 C33 32.01 33 64.02 33 97 C22.44 97 11.88 97 1 97 C1 107.89 1 118.78 1 130 C-9.89 130 -20.78 130 -32 130 C-32 108.55 -32 87.1 -32 65 C-21.44 65 -10.88 65 0 65 C0 43.55 0 22.1 0 0 Z " fill="#808080" transform="translate(578,678)"/>
<path d="M0 0 C42.9 0 85.8 0 130 0 C130 10.89 130 21.78 130 33 C87.1 33 44.2 33 0 33 C0 22.11 0 11.22 0 0 Z " fill="#808080" transform="translate(286,775)"/>
<path d="M0 0 C21.45 0 42.9 0 65 0 C65 10.89 65 21.78 65 33 C43.55 33 22.1 33 0 33 C0 22.11 0 11.22 0 0 Z " fill="#808080" transform="translate(676,775)"/>
<path d="M0 0 C10.89 0 21.78 0 33 0 C33 10.89 33 21.78 33 33 C22.11 33 11.22 33 0 33 C0 22.11 0 11.22 0 0 Z " fill="#828282" transform="translate(643,580)"/>
<path d="M0 0 C10.89 0 21.78 0 33 0 C33 10.56 33 21.12 33 32 C22.11 32 11.22 32 0 32 C0 21.44 0 10.88 0 0 Z " fill="#808080" transform="translate(513,808)"/>
<path d="M0 0 C10.56 0 21.12 0 32 0 C32 10.89 32 21.78 32 33 C21.44 33 10.88 33 0 33 C0 22.11 0 11.22 0 0 Z " fill="#7F7F7F" transform="translate(611,775)"/>
<path d="M0 0 C10.89 0 21.78 0 33 0 C33 10.56 33 21.12 33 32 C22.11 32 11.22 32 0 32 C0 21.44 0 10.88 0 0 Z " fill="#808080" transform="translate(643,743)"/>
</svg>
