<?xml version="1.0" encoding="UTF-8" standalone="no"?>
<!DOCTYPE svg PUBLIC "-//W3C//DTD SVG 1.1//EN" "http://www.w3.org/Graphics/SVG/1.1/DTD/svg11.dtd">
<svg xmlns="http://www.w3.org/2000/svg" version="1.1" viewBox="0.00 0.00 200.00 200.00">
<g stroke-width="2.00" fill="none" stroke-linecap="butt">
<path stroke="#858586" vector-effect="non-scaling-stroke" d="
  M 120.74 65.60
  Q 151.50 83.58 187.15 90.21
  A 0.31 0.31 0.0 0 0 187.51 89.87
  C 184.03 62.66 168.38 38.65 144.62 24.76
  C 120.86 10.87 92.26 9.00 66.84 19.31
  A 0.31 0.31 0.0 0 0 66.72 19.79
  Q 89.98 47.61 120.74 65.60"
/>
<path stroke="#858586" vector-effect="non-scaling-stroke" d="
  M 115.87 77.84
  Q 80.41 57.35 54.86 26.02
  A 0.74 0.73 -35.2 0 0 53.92 25.86
  Q 46.56 30.29 39.95 36.54
  A 0.57 0.57 0.0 0 0 39.94 37.37
  C 60.55 57.16 88.44 70.16 115.71 78.20
  A 0.20 0.20 0.0 0 0 115.87 77.84"
/>
<path stroke="#858586" vector-effect="non-scaling-stroke" d="
  M 120.29 93.22
  C 88.54 84.58 54.94 70.29 31.11 46.97
  A 0.51 0.51 0.0 0 0 30.34 47.03
  Q 14.76 67.39 12.51 93.15
  A 0.38 0.38 0.0 0 0 12.89 93.56
  L 120.24 93.58
  A 0.18 0.18 0.0 0 0 120.29 93.22"
/>
<path stroke="#858586" vector-effect="non-scaling-stroke" d="
  M 120.29 106.98
  A 0.18 0.18 0.0 0 0 120.24 106.62
  L 12.89 106.62
  A 0.38 0.38 0.0 0 0 12.51 107.03
  Q 14.76 132.79 30.33 153.15
  A 0.51 0.51 0.0 0 0 31.10 153.21
  C 54.94 129.90 88.54 115.62 120.29 106.98"
/>
<path stroke="#858586" vector-effect="non-scaling-stroke" d="
  M 120.72 134.60
  Q 89.95 152.59 66.69 180.41
  A 0.31 0.31 0.0 0 0 66.81 180.90
  C 92.23 191.21 120.84 189.35 144.60 175.45
  C 168.37 161.56 184.02 137.54 187.51 110.33
  A 0.31 0.31 0.0 0 0 187.15 109.99
  Q 151.49 116.61 120.72 134.60"
/>
<path stroke="#858586" vector-effect="non-scaling-stroke" d="
  M 116.06 122.28
  A 0.20 0.20 0.0 0 0 115.90 121.92
  C 88.57 129.96 60.61 142.98 39.95 162.80
  A 0.58 0.57 44.3 0 0 39.96 163.63
  Q 46.58 169.90 53.96 174.34
  A 0.74 0.74 0.0 0 0 54.90 174.18
  Q 80.52 142.80 116.06 122.28"
/>
</g>
<path fill="#141416" d="
  M 200.00 94.96
  L 200.00 105.12
  Q 196.94 148.63 164.85 176.10
  Q 138.49 198.67 102.31 200.00
  L 97.78 200.00
  C 44.64 197.92 3.56 158.20 0.00 105.11
  L 0.00 95.08
  Q 2.63 55.95 29.76 29.02
  C 55.95 3.02 95.02 -6.15 130.16 4.94
  C 170.01 17.51 197.21 52.89 200.00 94.96
  Z
  M 120.74 65.60
  Q 151.50 83.58 187.15 90.21
  A 0.31 0.31 0.0 0 0 187.51 89.87
  C 184.03 62.66 168.38 38.65 144.62 24.76
  C 120.86 10.87 92.26 9.00 66.84 19.31
  A 0.31 0.31 0.0 0 0 66.72 19.79
  Q 89.98 47.61 120.74 65.60
  Z
  M 115.87 77.84
  Q 80.41 57.35 54.86 26.02
  A 0.74 0.73 -35.2 0 0 53.92 25.86
  Q 46.56 30.29 39.95 36.54
  A 0.57 0.57 0.0 0 0 39.94 37.37
  C 60.55 57.16 88.44 70.16 115.71 78.20
  A 0.20 0.20 0.0 0 0 115.87 77.84
  Z
  M 120.29 93.22
  C 88.54 84.58 54.94 70.29 31.11 46.97
  A 0.51 0.51 0.0 0 0 30.34 47.03
  Q 14.76 67.39 12.51 93.15
  A 0.38 0.38 0.0 0 0 12.89 93.56
  L 120.24 93.58
  A 0.18 0.18 0.0 0 0 120.29 93.22
  Z
  M 120.29 106.98
  A 0.18 0.18 0.0 0 0 120.24 106.62
  L 12.89 106.62
  A 0.38 0.38 0.0 0 0 12.51 107.03
  Q 14.76 132.79 30.33 153.15
  A 0.51 0.51 0.0 0 0 31.10 153.21
  C 54.94 129.90 88.54 115.62 120.29 106.98
  Z
  M 120.72 134.60
  Q 89.95 152.59 66.69 180.41
  A 0.31 0.31 0.0 0 0 66.81 180.90
  C 92.23 191.21 120.84 189.35 144.60 175.45
  C 168.37 161.56 184.02 137.54 187.51 110.33
  A 0.31 0.31 0.0 0 0 187.15 109.99
  Q 151.49 116.61 120.72 134.60
  Z
  M 116.06 122.28
  A 0.20 0.20 0.0 0 0 115.90 121.92
  C 88.57 129.96 60.61 142.98 39.95 162.80
  A 0.58 0.57 44.3 0 0 39.96 163.63
  Q 46.58 169.90 53.96 174.34
  A 0.74 0.74 0.0 0 0 54.90 174.18
  Q 80.52 142.80 116.06 122.28
  Z"
/>
<path fill="#f5f5f5" d="
  M 144.62 24.76
  C 168.38 38.65 184.03 62.66 187.51 89.87
  A 0.31 0.31 0.0 0 1 187.15 90.21
  Q 151.50 83.58 120.74 65.60
  Q 89.98 47.61 66.72 19.79
  A 0.31 0.31 0.0 0 1 66.84 19.31
  C 92.26 9.00 120.86 10.87 144.62 24.76
  Z"
/>
<path fill="#f5f5f5" d="
  M 115.71 78.20
  C 88.44 70.16 60.55 57.16 39.94 37.37
  A 0.57 0.57 0.0 0 1 39.95 36.54
  Q 46.56 30.29 53.92 25.86
  A 0.74 0.73 -35.2 0 1 54.86 26.02
  Q 80.41 57.35 115.87 77.84
  A 0.20 0.20 0.0 0 1 115.71 78.20
  Z"
/>
<path fill="#f5f5f5" d="
  M 120.29 93.22
  A 0.18 0.18 0.0 0 1 120.24 93.58
  L 12.89 93.56
  A 0.38 0.38 0.0 0 1 12.51 93.15
  Q 14.76 67.39 30.34 47.03
  A 0.51 0.51 0.0 0 1 31.11 46.97
  C 54.94 70.29 88.54 84.58 120.29 93.22
  Z"
/>
<path fill="#f5f5f5" d="
  M 120.29 106.98
  C 88.54 115.62 54.94 129.90 31.10 153.21
  A 0.51 0.51 0.0 0 1 30.33 153.15
  Q 14.76 132.79 12.51 107.03
  A 0.38 0.38 0.0 0 1 12.89 106.62
  L 120.24 106.62
  A 0.18 0.18 0.0 0 1 120.29 106.98
  Z"
/>
<path fill="#f5f5f5" d="
  M 120.72 134.60
  Q 151.49 116.61 187.15 109.99
  A 0.31 0.31 0.0 0 1 187.51 110.33
  C 184.02 137.54 168.37 161.56 144.60 175.45
  C 120.84 189.35 92.23 191.21 66.81 180.90
  A 0.31 0.31 0.0 0 1 66.69 180.41
  Q 89.95 152.59 120.72 134.60
  Z"
/>
<path fill="#f5f5f5" d="
  M 116.06 122.28
  Q 80.52 142.80 54.90 174.18
  A 0.74 0.74 0.0 0 1 53.96 174.34
  Q 46.58 169.90 39.96 163.63
  A 0.58 0.57 44.3 0 1 39.95 162.80
  C 60.61 142.98 88.57 129.96 115.90 121.92
  A 0.20 0.20 0.0 0 1 116.06 122.28
  Z"
/>
</svg>
